<?xml version="1.0" encoding="UTF-8" standalone="no"?>
<svg xmlns="http://www.w3.org/2000/svg" height="125" viewBox="0 0 125 125" width="125"><path d="m 15.455946,109.15064 c -3.43564,-11.3462 -9.0145704,-14.1153 -16.24986043,-10.263 v 19.102 c 5.13112003,-10.0898 10.26303003,-8.2938 15.39494043,-5.6995" fill="#00f"/><path d="m 73.054353,24.45919 c 25.885156,0 39.143417,26.39023 28.915617,44.95179 1.26269,0.3788 4.92449,2.27284 3.40927,4.79826 -1.51523,2.5254 -7.576151,16.2887 -27.779201,14.7735 -1.010152,6.4397 -0.328716,12.6128 1.641498,22.8547 1.38951,7.2231 -0.631345,14.6472 -0.631345,14.6472 0,0 -47.785036,0.2163 -73.7411364,-0.1263 -1.88193,-6.3876 8.9651004,-25.7589 20.8344004,-24.7487 15.673847,1.3339 19.192894,1.6415 21.592007,-2.0203 2.399112,-3.6618 0,-23.2336 -3.535534,-30.80971 -3.535534,-7.57614 -7.828682,-40.78491 29.294424,-44.32044 z" fill="#b3b3b3"/><path d="m 76.479327,11.34894 c 2.215978,0.0146 4.26088,0.18646 6.022138,0.51884 l 4.622524,0.87553 -4.671275,0.65666 c -5.433575,0.77014 -7.800237,1.82889 -10.264403,3.8329 14.607718,-2.52122 25.093718,1.81592 32.140529,8.6905 7.50772,7.33667 11.2217,17.45397 12.50697,25.28515 l 0.36342,2.23748 -1.79938,-1.5484 C 108.48601,45.91477 100.09189,41.91 89.721119,40.41836 c 2.26029,1.68621 4.47627,3.11301 6.76316,3.9318 l 2.80986,1.00523 -2.96941,0.48642 c -7.68501,1.26467 -15.370015,-2.68661 -22.688056,-6.52031 -7.162036,-3.75346 -13.99079,-7.35612 -19.84274,-6.57706 -3.707774,5.56776 -5.841316,11.82784 -5.882089,17.6299 -0.03014,3.94477 0.88639,7.65849 2.90027,10.8388 l 0.368739,0.47018 0.02304,0.0275 0.01773,0.0275 c 0.168414,0.25942 0.327965,0.51884 0.496378,0.77827 0.833208,1.0863 1.808237,2.09966 2.933953,3.02059 l 2.065291,1.68623 -2.490758,-0.3 c 3.97103,7.73383 5.850179,15.70293 6.24019,22.53943 0.239326,4.1888 -0.07091,7.9495 -0.824344,10.9848 -0.753431,3.0384 -1.905739,5.3715 -3.577472,6.6881 l -1.515728,1.1957 0.106366,-1.8241 c 0.159551,-2.6372 0.469788,-5.5775 0.122322,-8.5283 -0.381147,0.7028 -0.824343,1.3619 -1.320722,1.978 -1.429748,1.7462 -3.412604,3.0644 -5.932613,3.4261 -2.517349,0.3647 -5.498283,-0.2173 -8.956092,-2.0106 l -1.701871,-0.8835 1.870285,-0.5432 c 2.375527,-0.6892 4.14831,-1.5647 5.466372,-2.5748 -0.700248,0.032 -1.400497,0 -2.091882,-0.09 -4.136786,-0.5432 -7.933196,-2.9347 -10.41509,-5.0911 l -1.19131,-1.0377 1.613231,-0.2942 c 5.33873,-0.9647 9.59961,-3.2225 11.540808,-6.9962 1.943855,-3.7746 1.669961,-9.2539 -2.588262,-16.89465 -2.503168,-4.48714 -4.240494,-8.59 -5.291753,-12.39776 -0.265917,-0.58774 -0.496379,-1.18846 -0.688726,-1.80134 -0.655928,-2.08345 -0.868661,-4.29661 -0.56463,-6.54544 -0.02127,-1.89375 0.146254,-3.72104 0.496379,-5.48831 1.480271,-7.40637 6.089503,-13.75401 12.595612,-20.2508 h -0.0026 c 3.935574,-3.94397 10.344179,-6.47492 16.90347,-7.86361 4.103989,-0.86743 8.264706,-1.28656 11.95741,-1.26224 z" fill="#00f"/><path d="m 64.341787,35.57087 c 0,0 3.282996,-8.08123 -7.323606,-19.31917 -1.767767,-1.76777 -3.030458,-2.27285 -4.671956,-0.75762 -1.641497,1.51523 -17.046324,16.03618 0.252539,38.25953 0.505076,-2.39911 1.136421,-9.59645 1.136421,-9.59645 z" fill="#ff0"/><path d="m 92.752329,36.83356 c 0,0 9.091371,-19.57171 6.06091,-22.72844 -3.03045,-3.15672 -15.278554,11.49049 -16.920052,16.54125 2.020302,0.50508 8.081222,2.27285 10.859142,6.18719 z" fill="red"/><path d="m 43.26713,107.32424 c 0,0 -6.825489,-14.1368 -7.641047,-30.1667 -0.815668,-16.02927 -4.195766,-31.46781 -10.549207,-40.68735 -6.35341,-9.21955 -13.27177,-9.72974 -11.99696,-3.98218 1.2748,5.74753 11.12332,33.01605 12.12839,35.95362 C 23.042026,65.6478 7.0381456,41.11015 -0.43033443,37.22328 -7.898834,33.33641 -9.390804,37.5675 -7.322454,43.1074 c 2.0683696,5.53995 18.50735,30.84394 20.88662,33.50184 -2.73767,-1.6841 -12.2560904,-9.03531 -16.9975304,-8.99482 -4.7414196,0.0403 -4.9082796,5.36522 -2.6163,8.52602 2.29194,3.1611 20.9121004,19.1726 25.1495904,20.9444 -5.35112,0.2798 -10.3835504,1.9966 -9.1854404,6.0041 1.1981604,4.0071 11.3830704,14.0645 28.5303074,12.3784 2.57512,-2.8342 4.822337,-8.1431 4.822337,-8.1431 z" fill="#0f0"/></svg>
