<?xml version="1.0" encoding="UTF-8"?>
<svg version="1.1" viewBox="0 0 168 64" xmlns="http://www.w3.org/2000/svg" xmlns:cc="http://creativecommons.org/ns#" xmlns:dc="http://purl.org/dc/elements/1.1/" xmlns:rdf="http://www.w3.org/1999/02/22-rdf-syntax-ns#"><defs><clipPath id="b"><path d="m299.75 453.29c-4.002 0-7.245-3.244-7.245-7.244v-21.177c0-4.001 3.243-7.244 7.245-7.244h79.132c4.001 0 7.244 3.243 7.244 7.244v21.177c0 4-3.243 7.244-7.244 7.244h-79.132z"/></clipPath><linearGradient id="a" x2="1" gradientTransform="matrix(0 -35.665 -35.665 0 339.31 453.29)" gradientUnits="userSpaceOnUse"><stop stop-color="#f6f6f6" offset="0"/><stop stop-color="#d4d4d2" offset="1"/></linearGradient></defs><metadata><rdf:RDF><cc:Work rdf:about=""><dc:format>image/svg+xml</dc:format><dc:type rdf:resource="http://purl.org/dc/dcmitype/StillImage"/><dc:title/></cc:Work></rdf:RDF></metadata><g transform="translate(0 -988.36)"><g transform="matrix(1.7885 0 0 -1.776 -522.87 1793.7)"><g clip-path="url(#b)"><path d="m299.75 453.29c-4.002 0-7.245-3.244-7.245-7.244v-21.177c0-4.001 3.243-7.244 7.245-7.244h79.132c4.001 0 7.244 3.243 7.244 7.244v21.177c0 4-3.243 7.244-7.244 7.244h-79.132z" fill="url(#a)"/></g></g><g transform="matrix(1.7885 0 0 -1.776 167.73 1039.1)"><path d="m0 0c0-4.001-3.243-7.245-7.245-7.245h-79.132c-4.001 0-7.244 3.244-7.244 7.245v21.176c0 4.001 3.243 7.245 7.244 7.245h79.132c4.002 0 7.245-3.244 7.245-7.245v-21.176z" fill="none" stroke="#e7e6e6" stroke-width=".31"/></g><g transform="matrix(1.7885 0 0 -1.776 40.995 1017.3)"><path d="m0 0c-1.14-4.57-5.768-7.351-10.338-6.212-4.568 1.14-7.349 5.769-6.209 10.338 1.139 4.57 5.767 7.351 10.335 6.212 4.57-1.139 7.352-5.768 6.212-10.338" fill="#fff"/></g><g transform="matrix(1.7885 0 0 -1.776 29.614 1011.5)"><path d="m0 0c-0.264-1.057-1.892-0.52-2.42-0.388l0.465 1.868c0.529-0.131 2.23-0.377 1.955-1.48m-0.289-3.015c-0.289-1.163-2.245-0.534-2.881-0.376l0.514 2.059c0.634-0.157 2.669-0.471 2.367-1.683m2.138 2.998c0.169 1.135-0.695 1.745-1.876 2.152l0.383 1.538-0.935 0.234-0.374-1.497c-0.246 0.061-0.498 0.118-0.75 0.176l0.376 1.507-0.935 0.233-0.384-1.537c-0.203 0.046-0.403 0.092-0.597 0.141v4e-3l-1.29 0.322-0.249-0.999s0.694-0.159 0.679-0.169c0.38-0.095 0.448-0.346 0.437-0.545l-0.437-1.751c0.026-6e-3 0.06-0.016 0.097-0.031-0.031 8e-3 -0.064 0.016-0.099 0.025l-0.611-2.455c-0.047-0.115-0.165-0.287-0.429-0.222 9e-3 -0.013-0.681 0.17-0.681 0.17l-0.465-1.071 1.218-0.304c0.226-0.056 0.449-0.116 0.668-0.172l-0.387-1.555 0.934-0.233 0.384 1.538c0.255-0.069 0.503-0.133 0.745-0.194l-0.382-1.531 0.936-0.234 0.388 1.553c1.596-0.302 2.795-0.18 3.3 1.264 0.408 1.162-0.019 1.832-0.859 2.27 0.611 0.141 1.072 0.543 1.195 1.373" fill="#fff"/></g><g transform="matrix(1.7885 0 0 -1.776 50.631 1024.1)"><path d="m0 0c0.503 0 0.978 0.124 1.424 0.367 0.448 0.244 0.834 0.572 1.157 0.982 0.323 0.411 0.579 0.875 0.766 1.393 0.186 0.517 0.28 1.058 0.28 1.621 0 0.69-0.115 1.229-0.345 1.618-0.23 0.388-0.656 0.583-1.274 0.583-0.203 0-0.464-0.039-0.787-0.108-0.325-0.073-0.615-0.225-0.876-0.454l-1.424-5.915c0.086-0.015 0.163-0.029 0.227-0.042 0.063-0.015 0.133-0.026 0.203-0.033 0.074-8e-3 0.158-0.012 0.26-0.012h0.389zm2.806 9.242c0.692 0 1.289-0.124 1.791-0.368 0.504-0.246 0.921-0.577 1.255-0.993 0.33-0.419 0.576-0.908 0.733-1.469 0.157-0.562 0.237-1.166 0.237-1.813 0-0.994-0.182-1.932-0.55-2.818-0.367-0.886-0.866-1.655-1.501-2.311-0.633-0.655-1.382-1.171-2.245-1.552-0.862-0.382-1.799-0.573-2.805-0.573-0.131 0-0.359 4e-3 -0.682 0.011-0.324 6e-3 -0.694 0.039-1.111 0.095-0.418 0.059-0.861 0.145-1.328 0.261-0.467 0.114-0.91 0.273-1.328 0.475l3.735 15.694 3.346 0.519-1.338-5.57c0.287 0.13 0.574 0.229 0.863 0.302 0.289 0.072 0.597 0.11 0.928 0.11" fill="#fff"/></g><g transform="matrix(1.7885 0 0 -1.776 71.818 1005.6)"><path d="m0 0c-0.446 0-0.85 0.133-1.209 0.398-0.362 0.265-0.541 0.672-0.541 1.221 0 0.302 0.062 0.585 0.183 0.852 0.123 0.266 0.285 0.497 0.487 0.691s0.435 0.349 0.7 0.465c0.268 0.114 0.552 0.172 0.854 0.172 0.446 0 0.849-0.133 1.209-0.399 0.359-0.267 0.54-0.674 0.54-1.22 0-0.302-0.062-0.587-0.185-0.854-0.121-0.266-0.283-0.496-0.485-0.691-0.2-0.193-0.436-0.348-0.701-0.463-0.267-0.116-0.55-0.172-0.852-0.172m-1.555-12.737h-3.195l2.698 11.354h3.218l-2.721-11.354z" fill="#fff"/></g><g transform="matrix(1.7885 0 0 -1.776 78.91 1003.1)"><path d="m0 0 3.347 0.518-0.822-3.346h3.585l-0.648-2.634h-3.562l-0.949-3.972c-0.088-0.331-0.137-0.64-0.152-0.927-0.015-0.289 0.022-0.537 0.108-0.746s0.24-0.37 0.464-0.485c0.223-0.115 0.542-0.173 0.96-0.173 0.345 0 0.681 0.032 1.006 0.097 0.323 0.064 0.649 0.154 0.981 0.27l0.238-2.462c-0.432-0.159-0.899-0.295-1.403-0.41-0.505-0.115-1.102-0.172-1.792-0.172-0.994 0-1.764 0.147-2.311 0.441-0.548 0.296-0.935 0.699-1.167 1.211-0.228 0.509-0.33 1.097-0.301 1.758 0.028 0.664 0.129 1.361 0.301 2.094l2.117 8.938z" fill="#fff"/></g><g transform="matrix(1.7885 0 0 -1.776 89.585 1020.2)"><path d="m0 0c0 0.979 0.158 1.9 0.475 2.764 0.316 0.864 0.771 1.62 1.361 2.268 0.589 0.646 1.305 1.157 2.149 1.532 0.84 0.374 1.78 0.562 2.816 0.562 0.648 0 1.228-0.061 1.737-0.184 0.513-0.124 0.975-0.284 1.393-0.485l-1.102-2.507c-0.287 0.117-0.585 0.22-0.895 0.314-0.31 0.095-0.687 0.14-1.133 0.14-1.067 0-1.91-0.367-2.537-1.1-0.625-0.734-0.941-1.72-0.941-2.958 0-0.735 0.159-1.327 0.477-1.781 0.316-0.454 0.9-0.68 1.748-0.68 0.419 0 0.822 0.044 1.209 0.129 0.39 0.087 0.734 0.195 1.037 0.324l0.239-2.569c-0.404-0.157-0.85-0.298-1.339-0.422-0.491-0.12-1.073-0.182-1.75-0.182-0.893 0-1.648 0.131-2.267 0.388-0.618 0.261-1.129 0.608-1.531 1.047-0.405 0.441-0.696 0.955-0.876 1.545-0.179 0.59-0.27 1.209-0.27 1.855" fill="#fff"/></g><g transform="matrix(1.7885 0 0 -1.776 117.83 1012.4)"><path d="m0 0c-0.473 0-0.893-0.138-1.251-0.409-0.36-0.275-0.662-0.62-0.905-1.037-0.247-0.417-0.43-0.875-0.553-1.37-0.122-0.498-0.182-0.967-0.182-1.415 0-0.719 0.116-1.281 0.345-1.685 0.231-0.401 0.647-0.603 1.252-0.603 0.475 0 0.892 0.136 1.253 0.411 0.358 0.272 0.66 0.619 0.906 1.035 0.244 0.417 0.429 0.875 0.552 1.371 0.121 0.496 0.182 0.969 0.182 1.415 0 0.718-0.115 1.28-0.346 1.683-0.23 0.402-0.648 0.604-1.253 0.604m-1.596-9.239c-0.763 0-1.426 0.115-1.988 0.346-0.56 0.23-1.023 0.552-1.391 0.971-0.367 0.417-0.642 0.91-0.831 1.479-0.188 0.568-0.279 1.197-0.279 1.887 0 0.865 0.139 1.73 0.42 2.592 0.279 0.864 0.693 1.64 1.242 2.33 0.544 0.692 1.216 1.257 2.006 1.698 0.79 0.438 1.699 0.658 2.719 0.658 0.749 0 1.407-0.117 1.977-0.347 0.568-0.23 1.035-0.555 1.404-0.971 0.365-0.419 0.642-0.91 0.828-1.48 0.189-0.567 0.282-1.198 0.282-1.888 0-0.862-0.138-1.727-0.409-2.592-0.272-0.861-0.676-1.639-1.209-2.331-0.532-0.69-1.197-1.255-1.997-1.694-0.798-0.438-1.723-0.658-2.774-0.658" fill="#fff"/></g><g transform="matrix(1.7885 0 0 -1.776 135.4 1005.6)"><path d="m0 0c-0.446 0-0.85 0.133-1.208 0.398-0.359 0.265-0.54 0.672-0.54 1.221 0 0.302 0.062 0.585 0.184 0.852 0.121 0.266 0.284 0.497 0.486 0.691 0.2 0.194 0.437 0.349 0.701 0.465 0.266 0.114 0.55 0.172 0.852 0.172 0.447 0 0.851-0.133 1.21-0.399 0.36-0.267 0.541-0.674 0.541-1.22 0-0.302-0.064-0.587-0.186-0.854-0.12-0.266-0.282-0.496-0.484-0.691-0.202-0.193-0.435-0.348-0.701-0.463-0.268-0.116-0.551-0.172-0.855-0.172m-1.552-12.737h-3.198l2.699 11.354h3.218l-2.719-11.354z" fill="#fff"/></g><g transform="matrix(1.7885 0 0 -1.776 141.61 1009)"><path d="m0 0c0.242 0.071 0.513 0.156 0.808 0.249 0.296 0.092 0.625 0.179 0.995 0.257 0.365 0.08 0.777 0.145 1.23 0.196s0.969 0.076 1.542 0.076c1.686 0 2.846-0.491 3.489-1.47 0.641-0.978 0.751-2.317 0.335-4.014l-1.47-6.131h-3.216l1.424 6.001c0.087 0.375 0.155 0.738 0.206 1.091 0.051 0.351 0.047 0.66-0.011 0.928-0.058 0.265-0.191 0.481-0.399 0.648-0.211 0.166-0.529 0.248-0.961 0.248-0.417 0-0.841-0.045-1.273-0.131l-2.095-8.785h-3.218l2.614 10.837z" fill="#fff"/></g><g transform="matrix(1.7885 0 0 -1.776 40.995 1017.1)"><path d="m0 0c-1.14-4.57-5.768-7.351-10.338-6.212-4.568 1.14-7.349 5.769-6.209 10.338 1.139 4.57 5.767 7.351 10.335 6.212 4.57-1.139 7.352-5.768 6.212-10.338" fill="#f68713"/></g><g transform="matrix(1.7885 0 0 -1.776 29.614 1011.2)"><path d="m0 0c-0.264-1.057-1.892-0.52-2.42-0.388l0.465 1.868c0.529-0.131 2.23-0.377 1.955-1.48m-0.289-3.015c-0.289-1.163-2.245-0.534-2.881-0.376l0.514 2.059c0.634-0.157 2.669-0.471 2.367-1.683m2.138 2.998c0.169 1.135-0.695 1.745-1.876 2.152l0.383 1.538-0.935 0.234-0.374-1.497c-0.246 0.061-0.498 0.118-0.75 0.176l0.376 1.507-0.935 0.233-0.384-1.537c-0.203 0.046-0.403 0.092-0.597 0.141v4e-3l-1.29 0.322-0.249-0.999s0.694-0.159 0.679-0.169c0.38-0.095 0.448-0.346 0.437-0.545-0.35037-1.4016-0.721-2.8899-1.05-4.212-0.047-0.115-0.165-0.287-0.429-0.222 9e-3 -0.013-0.681 0.17-0.681 0.17l-0.465-1.071 1.218-0.304c0.226-0.056 0.449-0.116 0.668-0.172l-0.387-1.555 0.934-0.233 0.384 1.538c0.255-0.069 0.503-0.133 0.745-0.194l-0.382-1.531 0.936-0.234 0.388 1.553c1.596-0.302 2.795-0.18 3.3 1.264 0.408 1.162-0.019 1.832-0.859 2.27 0.611 0.141 1.072 0.543 1.195 1.373" fill="#fff"/></g><g transform="matrix(1.7885 0 0 -1.776 50.631 1023.8)"><path d="m0 0c0.503 0 0.978 0.124 1.424 0.367 0.448 0.244 0.834 0.572 1.157 0.982 0.323 0.411 0.579 0.875 0.766 1.393 0.186 0.517 0.28 1.058 0.28 1.621 0 0.69-0.115 1.229-0.345 1.618-0.23 0.388-0.656 0.583-1.274 0.583-0.203 0-0.464-0.039-0.787-0.108-0.325-0.073-0.615-0.225-0.876-0.454l-1.424-5.915c0.086-0.015 0.163-0.029 0.227-0.042 0.063-0.015 0.133-0.026 0.203-0.033 0.074-8e-3 0.158-0.012 0.26-0.012h0.389zm2.806 9.242c0.692 0 1.289-0.124 1.791-0.368 0.504-0.246 0.921-0.577 1.255-0.993 0.33-0.419 0.576-0.908 0.733-1.469 0.157-0.562 0.237-1.166 0.237-1.813 0-0.994-0.182-1.932-0.55-2.818-0.367-0.886-0.866-1.655-1.501-2.311-0.633-0.655-1.382-1.171-2.245-1.552-0.862-0.382-1.799-0.573-2.805-0.573-0.131 0-0.359 4e-3 -0.682 0.011-0.324 6e-3 -0.694 0.039-1.111 0.095-0.418 0.059-0.861 0.145-1.328 0.261-0.467 0.114-0.91 0.273-1.328 0.475l3.735 15.694 3.346 0.519-1.338-5.57c0.287 0.13 0.574 0.229 0.863 0.302 0.289 0.072 0.597 0.11 0.928 0.11" fill="#464648"/></g><g transform="matrix(1.7885 0 0 -1.776 71.818 1005.4)"><path d="m0 0c-0.446 0-0.85 0.133-1.209 0.398-0.362 0.265-0.541 0.672-0.541 1.221 0 0.302 0.062 0.585 0.183 0.852 0.123 0.266 0.285 0.497 0.487 0.691s0.435 0.349 0.7 0.465c0.268 0.114 0.552 0.172 0.854 0.172 0.446 0 0.849-0.133 1.209-0.399 0.359-0.267 0.54-0.674 0.54-1.22 0-0.302-0.062-0.587-0.185-0.854-0.121-0.266-0.283-0.496-0.485-0.691-0.2-0.193-0.436-0.348-0.701-0.463-0.267-0.116-0.55-0.172-0.852-0.172m-1.555-12.737h-3.195l2.698 11.354h3.218l-2.721-11.354z" fill="#464648"/></g><g transform="matrix(1.7885 0 0 -1.776 78.91 1002.8)"><path d="m0 0 3.347 0.518-0.822-3.346h3.585l-0.648-2.634h-3.562l-0.949-3.972c-0.088-0.331-0.137-0.64-0.152-0.927-0.015-0.289 0.022-0.537 0.108-0.746s0.24-0.37 0.464-0.485c0.223-0.115 0.542-0.173 0.96-0.173 0.345 0 0.681 0.032 1.006 0.097 0.323 0.064 0.649 0.154 0.981 0.27l0.238-2.462c-0.432-0.159-0.899-0.295-1.403-0.41-0.505-0.115-1.102-0.172-1.792-0.172-0.994 0-1.764 0.147-2.311 0.441-0.548 0.296-0.935 0.699-1.167 1.211-0.228 0.509-0.33 1.097-0.301 1.758 0.028 0.664 0.129 1.361 0.301 2.094l2.117 8.938z" fill="#464648"/></g><g transform="matrix(1.7885 0 0 -1.776 89.585 1020)"><path d="m0 0c0 0.979 0.158 1.9 0.475 2.764 0.316 0.864 0.771 1.62 1.361 2.268 0.589 0.646 1.305 1.157 2.149 1.532 0.84 0.374 1.78 0.562 2.816 0.562 0.648 0 1.228-0.061 1.737-0.184 0.513-0.124 0.975-0.284 1.393-0.485l-1.102-2.507c-0.287 0.117-0.585 0.22-0.895 0.314-0.31 0.095-0.687 0.14-1.133 0.14-1.067 0-1.91-0.367-2.537-1.1-0.625-0.734-0.941-1.72-0.941-2.958 0-0.735 0.159-1.327 0.477-1.781 0.316-0.454 0.9-0.68 1.748-0.68 0.419 0 0.822 0.044 1.209 0.129 0.39 0.087 0.734 0.195 1.037 0.324l0.239-2.569c-0.404-0.157-0.85-0.298-1.339-0.422-0.491-0.12-1.073-0.182-1.75-0.182-0.893 0-1.648 0.131-2.267 0.388-0.618 0.261-1.129 0.608-1.531 1.047-0.405 0.441-0.696 0.955-0.876 1.545-0.179 0.59-0.27 1.209-0.27 1.855" fill="#464648"/></g><g transform="matrix(1.7885 0 0 -1.776 117.83 1012.1)"><path d="m0 0c-0.473 0-0.893-0.138-1.251-0.409-0.36-0.275-0.662-0.62-0.905-1.037-0.247-0.417-0.43-0.875-0.553-1.37-0.122-0.498-0.182-0.967-0.182-1.415 0-0.719 0.116-1.281 0.345-1.685 0.231-0.401 0.647-0.603 1.252-0.603 0.475 0 0.892 0.136 1.253 0.411 0.358 0.272 0.66 0.619 0.906 1.035 0.244 0.417 0.429 0.875 0.552 1.371 0.121 0.496 0.182 0.969 0.182 1.415 0 0.718-0.115 1.28-0.346 1.683-0.23 0.402-0.648 0.604-1.253 0.604m-1.596-9.239c-0.763 0-1.426 0.115-1.988 0.346-0.56 0.23-1.023 0.552-1.391 0.971-0.367 0.417-0.642 0.91-0.831 1.479-0.188 0.568-0.279 1.197-0.279 1.887 0 0.865 0.139 1.73 0.42 2.592 0.279 0.864 0.693 1.64 1.242 2.33 0.544 0.692 1.216 1.257 2.006 1.698 0.79 0.438 1.699 0.658 2.719 0.658 0.749 0 1.407-0.117 1.977-0.347 0.568-0.23 1.035-0.555 1.404-0.971 0.365-0.419 0.642-0.91 0.828-1.48 0.189-0.567 0.282-1.198 0.282-1.888 0-0.862-0.138-1.727-0.409-2.592-0.272-0.861-0.676-1.639-1.209-2.331-0.532-0.69-1.197-1.255-1.997-1.694-0.798-0.438-1.723-0.658-2.774-0.658" fill="#464648"/></g><g transform="matrix(1.7885 0 0 -1.776 135.4 1005.4)"><path d="m0 0c-0.446 0-0.85 0.133-1.208 0.398-0.359 0.265-0.54 0.672-0.54 1.221 0 0.302 0.062 0.585 0.184 0.852 0.121 0.266 0.284 0.497 0.486 0.691 0.2 0.194 0.437 0.349 0.701 0.465 0.266 0.114 0.55 0.172 0.852 0.172 0.447 0 0.851-0.133 1.21-0.399 0.36-0.267 0.541-0.674 0.541-1.22 0-0.302-0.064-0.587-0.186-0.854-0.12-0.266-0.282-0.496-0.484-0.691-0.202-0.193-0.435-0.348-0.701-0.463-0.268-0.116-0.551-0.172-0.855-0.172m-1.552-12.737h-3.198l2.699 11.354h3.218l-2.719-11.354z" fill="#464648"/></g><g transform="matrix(1.7885 0 0 -1.776 141.61 1008.8)"><path d="m0 0c0.242 0.071 0.513 0.156 0.808 0.249 0.296 0.092 0.625 0.179 0.995 0.257 0.365 0.08 0.777 0.145 1.23 0.195 0.453 0.052 0.969 0.077 1.542 0.077 1.686 0 2.846-0.491 3.489-1.47 0.641-0.978 0.751-2.317 0.335-4.014l-1.47-6.131h-3.216l1.424 6.001c0.087 0.375 0.155 0.738 0.206 1.091 0.051 0.351 0.047 0.66-0.011 0.928-0.058 0.265-0.191 0.481-0.399 0.648-0.211 0.166-0.529 0.248-0.961 0.248-0.417 0-0.841-0.045-1.273-0.131l-2.095-8.785h-3.218l2.614 10.837z" fill="#464648"/></g><g transform="matrix(1.094 0 0 1.0863 -270.47 508.48)" fill="#fff"><path d="m330.08 490.59c0.0767 0.0139 0.16391 0.0244 0.26156 0.0314h0.48129c0.50221 0 0.95559-0.0802 1.3602-0.24065 0.40455-0.16042 0.74633-0.38712 1.0253-0.68008 0.28598-0.29992 0.5057-0.65566 0.65916-1.0672 0.15344-0.41851 0.23017-0.88236 0.23018-1.3916-1e-5 -0.55103-0.15695-0.98698-0.47083-1.3078-0.31389-0.32085-0.82656-0.48128-1.538-0.48129-0.18136 1e-5 -0.32784 4e-3 -0.43943 0.0105-0.10464 7e-3 -0.21973 0.0174-0.34527 0.0314l-1.2241 5.0954m5.3778-3.3899c-1e-5 0.64869-0.10463 1.252-0.31388 1.81-0.20926 0.55802-0.51966 1.0393-0.93118 1.4439-0.41154 0.40456-0.92771 0.72193-1.5485 0.95211-0.61382 0.23018-1.3288 0.34527-2.1449 0.34527-0.29296 0-0.62079-0.0174-0.9835-0.0523-0.36271-0.0279-0.69751-0.0767-1.0044-0.14648l1.6845-7.0205c0.34178-0.0767 0.68705-0.12554 1.0358-0.14647 0.34876-0.0279 0.66961-0.0419 0.96257-0.0419 0.53011 0 0.99745 0.0697 1.402 0.20925 0.40455 0.13253 0.74285 0.32435 1.0149 0.57545 0.27203 0.24414 0.4778 0.54407 0.61731 0.8998 0.13949 0.34876 0.20924 0.73937 0.20925 1.1718"/><path d="m338.04 491.82c-0.64869 0-1.1439-0.19182-1.4857-0.57545-0.34178-0.38364-0.51267-0.88933-0.51267-1.5171 0-0.40456 0.0628-0.82307 0.18833-1.2555 0.12555-0.43245 0.31737-0.82655 0.57545-1.1823 0.25808-0.35573 0.58242-0.64868 0.97303-0.87887 0.39061-0.23017 0.85097-0.34526 1.3811-0.34527 0.64869 1e-5 1.1439 0.19183 1.4857 0.57545 0.34178 0.37667 0.51267 0.87888 0.51268 1.5066-1e-5 0.41153-0.0628 0.83353-0.18833 1.266-0.11859 0.43246-0.30692 0.82656-0.56499 1.1823-0.25111 0.35573-0.57546 0.64869-0.97303 0.87887-0.39062 0.23018-0.85446 0.34527-1.3916 0.34527m0.96257-4.6873c-0.27203 1e-5 -0.51616 0.0802-0.73239 0.24065-0.20926 0.15345-0.38712 0.35224-0.5336 0.59637-0.1395 0.24413-0.24762 0.51268-0.32434 0.80563-0.0767 0.28599-0.11509 0.56499-0.11509 0.83702 0 0.34876 0.0663 0.62428 0.19879 0.82656 0.13252 0.20228 0.36619 0.30342 0.701 0.30342 0.27203 0 0.51267-0.0767 0.72193-0.23018 0.21623-0.16043 0.39409-0.35922 0.5336-0.59638 0.14647-0.24413 0.25808-0.51267 0.33481-0.80563 0.0767-0.29295 0.11508-0.57196 0.11509-0.83702-1e-5 -0.34875-0.0663-0.62427-0.19879-0.82656-0.13254-0.20925-0.3662-0.31387-0.70101-0.31388"/><path d="m342.93 486.43c0.279-0.0837 0.59637-0.16042 0.95211-0.23018 0.3627-0.0767 0.7568-0.11509 1.1823-0.11509 0.64171 0 1.1125 0.15695 1.4125 0.47082 0.29992 0.31389 0.44989 0.73589 0.44989 1.266 0 0.14648-0.0139 0.30343-0.0419 0.47083-0.0209 0.16043-0.0488 0.32783-0.0837 0.50221l-0.69054 2.8772h-1.266l0.64869-2.7412c0.0349-0.15345 0.0697-0.31039 0.10463-0.47082 0.0349-0.16043 0.0558-0.31388 0.0628-0.46036 7e-3 -0.24413-0.0523-0.44641-0.17786-0.60684-0.11859-0.16042-0.35574-0.24064-0.71147-0.24064-0.29993 0-0.55801 0.0314-0.77424 0.0942l-1.0567 4.4257h-1.266l1.2555-5.2418"/><path d="m352.34 489.55c-0.0209 0.0767-0.0419 0.20229-0.0628 0.37666-0.0209 0.17438-0.0314 0.3383-0.0314 0.49175 0 0.20228 0.0174 0.40107 0.0523 0.59638 0.0349 0.18833 0.0907 0.38014 0.1674 0.57545l-1.13 0.1674c-0.0837-0.1674-0.14997-0.34527-0.19879-0.5336-0.17438 0.15345-0.39061 0.29296-0.64869 0.41851-0.25111 0.11858-0.53709 0.17787-0.85794 0.17787-0.32784 0-0.61033-0.0523-0.84748-0.15694-0.23018-0.11161-0.41851-0.26157-0.56499-0.4499-0.14648-0.19531-0.25459-0.422-0.32434-0.68008-0.0698-0.25808-0.10463-0.53708-0.10463-0.83702 0-0.50918 0.0907-0.98349 0.27203-1.4229 0.18135-0.43943 0.43246-0.81958 0.75332-1.1404 0.32783-0.32085 0.71495-0.57196 1.1614-0.75331 0.44641-0.18833 0.93467-0.28249 1.4648-0.2825 0.27203 1e-5 0.54406 0.0244 0.8161 0.0732 0.279 0.0419 0.558 0.12556 0.83701 0.25111l-0.75331 3.1284m-0.69054-2.3646c-0.13254-0.0279-0.2825-0.0418-0.4499-0.0419-0.31389 1e-5 -0.60336 0.0698-0.86841 0.20926-0.26506 0.13253-0.49524 0.31389-0.69054 0.54406-0.18833 0.22321-0.33481 0.48129-0.43943 0.77424-0.10463 0.29296-0.15695 0.59987-0.15694 0.92072-1e-5 0.16044 0.0139 0.3104 0.0419 0.4499 0.0279 0.13951 0.0732 0.26157 0.13601 0.3662 0.0697 0.10463 0.16043 0.18833 0.27203 0.2511 0.1116 0.0628 0.25459 0.0942 0.42898 0.0942 0.2232 0 0.4185-0.0453 0.58591-0.13602 0.17437-0.0976 0.3348-0.22669 0.48128-0.38712 7e-3 -0.18135 0.0209-0.35224 0.0419-0.51267 0.0279-0.16043 0.0628-0.32086 0.10462-0.48129l0.51268-2.0507"/><path d="m354.92 484.76 1.3183-0.20925-0.39759 1.6531h1.7891l-0.25111 1.0463h-1.7891l-0.52314 2.1658c-0.0349 0.15345-0.0593 0.28249-0.0732 0.38712-0.0139 0.0977-0.0209 0.18833-0.0209 0.27203-1e-5 0.0837 7e-3 0.16741 0.0209 0.25111 0.0209 0.0767 0.0558 0.14648 0.10463 0.20925 0.0558 0.0558 0.13252 0.10463 0.23018 0.14648 0.10462 0.0349 0.24413 0.0523 0.41851 0.0523 0.18832 0 0.36968-0.0244 0.54406-0.0732s0.32783-0.10114 0.46036-0.15694l0.0942 1.0149c-0.16043 0.0697-0.36271 0.13601-0.60683 0.19879-0.24414 0.0628-0.53012 0.0942-0.85795 0.0942-0.59986 0-1.0288-0.12904-1.2869-0.38712-0.25809-0.26505-0.38713-0.62427-0.38713-1.0777 0-0.1674 0.0105-0.33829 0.0314-0.51267 0.0279-0.18135 0.0663-0.37317 0.11509-0.57545l1.0672-4.499"/><path d="m357.84 489.69c0-0.46733 0.0732-0.91723 0.21972-1.3497 0.15345-0.43943 0.36968-0.82655 0.64869-1.1614 0.28598-0.34178 0.62776-0.61381 1.0254-0.8161 0.39758-0.20227 0.84399-0.30341 1.3392-0.30342 0.5301 1e-5 0.94164 0.13602 1.2346 0.40805 0.29295 0.27204 0.43943 0.62079 0.43943 1.0463 0 0.43944-0.10812 0.79517-0.32434 1.0672-0.21624 0.27204-0.49873 0.48478-0.84748 0.63823-0.34179 0.15345-0.7324 0.25808-1.1718 0.31388-0.43246 0.0558-0.8719 0.0907-1.3183 0.10463-7e-3 0.0139-0.0105 0.0279-0.0105 0.0419v0.10463c0 0.63474 0.40107 0.95211 1.2032 0.95211 0.47431 0 0.94862-0.0977 1.4229-0.29296l0.10463 1.0254c-0.16741 0.0767-0.40457 0.15345-0.71147 0.23018-0.30691 0.0767-0.65567 0.11509-1.0463 0.11509-0.39061 0-0.72542-0.0558-1.0044-0.16741-0.27901-0.1116-0.50919-0.26505-0.69054-0.46036-0.17438-0.1953-0.30342-0.41851-0.38713-0.66961-0.0837-0.25808-0.12555-0.5336-0.12555-0.82656m3.0447-2.5948c-0.20926 1e-5 -0.40805 0.0419-0.59638 0.12556-0.18833 0.0837-0.35573 0.19879-0.50221 0.34527s-0.27552 0.32086-0.38712 0.52313c-0.10463 0.19531-0.18136 0.40805-0.23018 0.63823 0.83701-0.0279 1.4438-0.12904 1.8205-0.30342 0.38363-0.17437 0.57545-0.43594 0.57545-0.7847 0-0.1395-0.0523-0.26506-0.15694-0.37666-0.0977-0.1116-0.27203-0.1674-0.52313-0.16741"/><path d="m370.37 491.67c-0.13254-0.40456-0.28599-0.84051-0.46037-1.3078-0.1674-0.46734-0.34876-0.93467-0.54406-1.402-0.18833-0.46733-0.38712-0.92072-0.59637-1.3602-0.20229-0.44641-0.40805-0.85446-0.6173-1.2241l-1.266 5.2941h-1.2974l1.7368-7.2507h1.0567c0.1953 0.31389 0.39758 0.67311 0.60683 1.0777 0.21623 0.40456 0.42548 0.83004 0.62777 1.2764 0.20227 0.43944 0.39758 0.88236 0.58591 1.3288s0.35224 0.86841 0.49175 1.266l1.1614-4.9489h1.3078l-1.7368 7.2507h-1.0567"/><path d="m375.31 491.82c-0.64869 0-1.1439-0.19182-1.4857-0.57545-0.34178-0.38364-0.51267-0.88933-0.51267-1.5171 0-0.40456 0.0628-0.82307 0.18833-1.2555 0.12555-0.43245 0.31736-0.82655 0.57545-1.1823 0.25807-0.35573 0.58242-0.64868 0.97303-0.87887 0.39061-0.23017 0.85097-0.34526 1.3811-0.34527 0.64869 1e-5 1.1439 0.19183 1.4857 0.57545 0.34178 0.37667 0.51267 0.87888 0.51267 1.5066 0 0.41153-0.0628 0.83353-0.18833 1.266-0.11858 0.43246-0.30691 0.82656-0.56498 1.1823-0.25111 0.35573-0.57546 0.64869-0.97304 0.87887-0.39061 0.23018-0.85446 0.34527-1.3915 0.34527m0.96257-4.6873c-0.27204 1e-5 -0.51617 0.0802-0.73239 0.24065-0.20926 0.15345-0.38713 0.35224-0.5336 0.59637-0.13951 0.24413-0.24762 0.51268-0.32435 0.80563-0.0767 0.28599-0.11509 0.56499-0.11509 0.83702 0 0.34876 0.0663 0.62428 0.1988 0.82656 0.13252 0.20228 0.36619 0.30342 0.701 0.30342 0.27203 0 0.51267-0.0767 0.72193-0.23018 0.21622-0.16043 0.39409-0.35922 0.5336-0.59638 0.14647-0.24413 0.25807-0.51267 0.3348-0.80563 0.0767-0.29295 0.11509-0.57196 0.11509-0.83702 0-0.34875-0.0663-0.62427-0.19879-0.82656-0.13253-0.20925-0.3662-0.31387-0.701-0.31388"/><path d="m383.29 488.21c-0.13253 0.29994-0.2825 0.61033-0.44989 0.93119-0.16741 0.31388-0.34179 0.62428-0.52314 0.93118-0.18136 0.29993-0.36271 0.5894-0.54406 0.86841-0.18136 0.27203-0.34876 0.51616-0.50221 0.73239h-1.0463c-0.0628-0.32086-0.12555-0.68705-0.18833-1.0986-0.0558-0.41153-0.10811-0.85097-0.15694-1.3183-0.0488-0.46734-0.0942-0.95908-0.13601-1.4752-0.0349-0.51616-0.0593-1.0428-0.0732-1.5799h1.2555c-1e-5 0.29296 3e-3 0.61033 0.0105 0.95211 7e-3 0.33481 0.0174 0.68008 0.0314 1.0358 0.0209 0.34876 0.0418 0.69403 0.0628 1.0358 0.0279 0.34178 0.0628 0.66264 0.10463 0.96257 0.1953-0.29993 0.38712-0.6173 0.57545-0.95211 0.1953-0.34178 0.38014-0.68356 0.55453-1.0254 0.17437-0.34875 0.3348-0.69402 0.48128-1.0358 0.15345-0.34177 0.28598-0.66612 0.39758-0.97303h1.0881c-1e-5 0.28599 3e-3 0.5894 0.0105 0.91026 7e-3 0.32086 0.0174 0.65218 0.0314 0.99396 0.0209 0.34178 0.0418 0.69054 0.0628 1.0463 0.0279 0.34876 0.0628 0.69403 0.10462 1.0358 0.18135-0.26505 0.36619-0.56847 0.55453-0.91026 0.18832-0.34178 0.36967-0.69053 0.54406-1.0463 0.17437-0.36271 0.33131-0.71844 0.47082-1.0672 0.14647-0.35573 0.26505-0.67658 0.35574-0.96257h1.3183c-0.14649 0.41851-0.32784 0.86492-0.54406 1.3392-0.20926 0.46734-0.44642 0.94165-0.71147 1.4229-0.26506 0.48129-0.55104 0.9556-0.85794 1.4229-0.29994 0.46036-0.61382 0.88933-0.94165 1.2869h-1.0463c-0.0767-0.58591-0.143-1.1614-0.19879-1.7264-0.0488-0.57196-0.0802-1.1509-0.0942-1.7368"/></g><g transform="matrix(1.094 0 0 1.0863 -270.47 508.29)" fill="#525c96"><path d="m330.08 490.59c0.0767 0.0139 0.16391 0.0244 0.26156 0.0314h0.48129c0.50221 0 0.95559-0.0802 1.3602-0.24065 0.40455-0.16042 0.74633-0.38712 1.0253-0.68008 0.28598-0.29992 0.5057-0.65566 0.65916-1.0672 0.15344-0.41851 0.23017-0.88236 0.23018-1.3916-1e-5 -0.55103-0.15695-0.98698-0.47083-1.3078-0.31389-0.32085-0.82656-0.48128-1.538-0.48129-0.18136 1e-5 -0.32784 4e-3 -0.43943 0.0105-0.10464 7e-3 -0.21973 0.0174-0.34527 0.0314l-1.2241 5.0954m5.3778-3.3899c-1e-5 0.64869-0.10463 1.252-0.31388 1.81-0.20926 0.55802-0.51966 1.0393-0.93118 1.4439-0.41154 0.40456-0.92771 0.72193-1.5485 0.95211-0.61382 0.23018-1.3288 0.34527-2.1449 0.34527-0.29296 0-0.62079-0.0174-0.9835-0.0523-0.36271-0.0279-0.69751-0.0767-1.0044-0.14648l1.6845-7.0205c0.34178-0.0767 0.68705-0.12554 1.0358-0.14647 0.34876-0.0279 0.66961-0.0419 0.96257-0.0419 0.53011 0 0.99745 0.0697 1.402 0.20925 0.40455 0.13253 0.74285 0.32435 1.0149 0.57545 0.27203 0.24414 0.4778 0.54407 0.61731 0.8998 0.13949 0.34876 0.20924 0.73937 0.20925 1.1718"/><path d="m338.04 491.82c-0.64869 0-1.1439-0.19182-1.4857-0.57545-0.34178-0.38364-0.51267-0.88933-0.51267-1.5171 0-0.40456 0.0628-0.82307 0.18833-1.2555 0.12555-0.43245 0.31737-0.82655 0.57545-1.1823 0.25808-0.35573 0.58242-0.64868 0.97303-0.87887 0.39061-0.23017 0.85097-0.34526 1.3811-0.34527 0.64869 1e-5 1.1439 0.19183 1.4857 0.57545 0.34178 0.37667 0.51267 0.87888 0.51268 1.5066-1e-5 0.41153-0.0628 0.83353-0.18833 1.266-0.11859 0.43246-0.30692 0.82656-0.56499 1.1823-0.25111 0.35573-0.57546 0.64869-0.97303 0.87887-0.39062 0.23018-0.85446 0.34527-1.3916 0.34527m0.96257-4.6873c-0.27203 1e-5 -0.51616 0.0802-0.73239 0.24065-0.20926 0.15345-0.38712 0.35224-0.5336 0.59637-0.1395 0.24413-0.24762 0.51268-0.32434 0.80563-0.0767 0.28599-0.11509 0.56499-0.11509 0.83702 0 0.34876 0.0663 0.62428 0.19879 0.82656 0.13252 0.20228 0.36619 0.30342 0.701 0.30342 0.27203 0 0.51267-0.0767 0.72193-0.23018 0.21623-0.16043 0.39409-0.35922 0.5336-0.59638 0.14647-0.24413 0.25808-0.51267 0.33481-0.80563 0.0767-0.29295 0.11508-0.57196 0.11509-0.83702-1e-5 -0.34875-0.0663-0.62427-0.19879-0.82656-0.13254-0.20925-0.3662-0.31387-0.70101-0.31388"/><path d="m342.93 486.43c0.279-0.0837 0.59637-0.16042 0.95211-0.23018 0.3627-0.0767 0.7568-0.11509 1.1823-0.11509 0.64171 0 1.1125 0.15695 1.4125 0.47082 0.29992 0.31389 0.44989 0.73589 0.44989 1.266 0 0.14648-0.0139 0.30343-0.0419 0.47083-0.0209 0.16043-0.0488 0.32783-0.0837 0.50221l-0.69054 2.8772h-1.266l0.64869-2.7412c0.0349-0.15345 0.0697-0.31039 0.10463-0.47082 0.0349-0.16043 0.0558-0.31388 0.0628-0.46036 7e-3 -0.24413-0.0523-0.44641-0.17786-0.60684-0.11859-0.16042-0.35574-0.24064-0.71147-0.24064-0.29993 0-0.55801 0.0314-0.77424 0.0942l-1.0567 4.4257h-1.266l1.2555-5.2418"/><path d="m352.34 489.55c-0.0209 0.0767-0.0419 0.20229-0.0628 0.37666-0.0209 0.17438-0.0314 0.3383-0.0314 0.49175 0 0.20228 0.0174 0.40107 0.0523 0.59638 0.0349 0.18833 0.0907 0.38014 0.1674 0.57545l-1.13 0.1674c-0.0837-0.1674-0.14997-0.34527-0.19879-0.5336-0.17438 0.15345-0.39061 0.29296-0.64869 0.41851-0.25111 0.11858-0.53709 0.17787-0.85794 0.17787-0.32784 0-0.61033-0.0523-0.84748-0.15694-0.23018-0.11161-0.41851-0.26157-0.56499-0.4499-0.14648-0.19531-0.25459-0.422-0.32434-0.68008-0.0698-0.25808-0.10463-0.53708-0.10463-0.83702 0-0.50918 0.0907-0.98349 0.27203-1.4229 0.18135-0.43943 0.43246-0.81958 0.75332-1.1404 0.32783-0.32085 0.71495-0.57196 1.1614-0.75331 0.44641-0.18833 0.93467-0.28249 1.4648-0.2825 0.27203 1e-5 0.54406 0.0244 0.8161 0.0732 0.279 0.0419 0.558 0.12556 0.83701 0.25111l-0.75331 3.1284m-0.69054-2.3646c-0.13254-0.0279-0.2825-0.0418-0.4499-0.0419-0.31389 1e-5 -0.60336 0.0698-0.86841 0.20926-0.26506 0.13253-0.49524 0.31389-0.69054 0.54406-0.18833 0.22321-0.33481 0.48129-0.43943 0.77424-0.10463 0.29296-0.15695 0.59987-0.15694 0.92072-1e-5 0.16044 0.0139 0.3104 0.0419 0.4499 0.0279 0.13951 0.0732 0.26157 0.13601 0.3662 0.0697 0.10463 0.16043 0.18833 0.27203 0.2511 0.1116 0.0628 0.25459 0.0942 0.42898 0.0942 0.2232 0 0.4185-0.0453 0.58591-0.13602 0.17437-0.0976 0.3348-0.22669 0.48128-0.38712 7e-3 -0.18135 0.0209-0.35224 0.0419-0.51267 0.0279-0.16043 0.0628-0.32086 0.10462-0.48129l0.51268-2.0507"/><path d="m354.92 484.76 1.3183-0.20925-0.39759 1.6531h1.7891l-0.25111 1.0463h-1.7891l-0.52314 2.1658c-0.0349 0.15345-0.0593 0.28249-0.0732 0.38712-0.0139 0.0977-0.0209 0.18833-0.0209 0.27203-1e-5 0.0837 7e-3 0.16741 0.0209 0.25111 0.0209 0.0767 0.0558 0.14648 0.10463 0.20925 0.0558 0.0558 0.13252 0.10463 0.23018 0.14648 0.10462 0.0349 0.24413 0.0523 0.41851 0.0523 0.18832 0 0.36968-0.0244 0.54406-0.0732s0.32783-0.10114 0.46036-0.15694l0.0942 1.0149c-0.16043 0.0697-0.36271 0.13601-0.60683 0.19879-0.24414 0.0628-0.53012 0.0942-0.85795 0.0942-0.59986 0-1.0288-0.12904-1.2869-0.38712-0.25809-0.26505-0.38713-0.62427-0.38713-1.0777 0-0.1674 0.0105-0.33829 0.0314-0.51267 0.0279-0.18135 0.0663-0.37317 0.11509-0.57545l1.0672-4.499"/><path d="m357.84 489.69c0-0.46733 0.0732-0.91723 0.21972-1.3497 0.15345-0.43943 0.36968-0.82655 0.64869-1.1614 0.28598-0.34178 0.62776-0.61381 1.0254-0.8161 0.39758-0.20227 0.84399-0.30341 1.3392-0.30342 0.5301 1e-5 0.94164 0.13602 1.2346 0.40805 0.29295 0.27204 0.43943 0.62079 0.43943 1.0463 0 0.43944-0.10812 0.79517-0.32434 1.0672-0.21624 0.27204-0.49873 0.48478-0.84748 0.63823-0.34179 0.15345-0.7324 0.25808-1.1718 0.31388-0.43246 0.0558-0.8719 0.0907-1.3183 0.10463-7e-3 0.0139-0.0105 0.0279-0.0105 0.0419v0.10463c0 0.63474 0.40107 0.95211 1.2032 0.95211 0.47431 0 0.94862-0.0977 1.4229-0.29296l0.10463 1.0254c-0.16741 0.0767-0.40457 0.15345-0.71147 0.23018-0.30691 0.0767-0.65567 0.11509-1.0463 0.11509-0.39061 0-0.72542-0.0558-1.0044-0.16741-0.27901-0.1116-0.50919-0.26505-0.69054-0.46036-0.17438-0.1953-0.30342-0.41851-0.38713-0.66961-0.0837-0.25808-0.12555-0.5336-0.12555-0.82656m3.0447-2.5948c-0.20926 1e-5 -0.40805 0.0419-0.59638 0.12556-0.18833 0.0837-0.35573 0.19879-0.50221 0.34527s-0.27552 0.32086-0.38712 0.52313c-0.10463 0.19531-0.18136 0.40805-0.23018 0.63823 0.83701-0.0279 1.4438-0.12904 1.8205-0.30342 0.38363-0.17437 0.57545-0.43594 0.57545-0.7847 0-0.1395-0.0523-0.26506-0.15694-0.37666-0.0977-0.1116-0.27203-0.1674-0.52313-0.16741"/><path d="m370.37 491.67c-0.13254-0.40456-0.28599-0.84051-0.46037-1.3078-0.1674-0.46734-0.34876-0.93467-0.54406-1.402-0.18833-0.46733-0.38712-0.92072-0.59637-1.3602-0.20229-0.44641-0.40805-0.85446-0.6173-1.2241l-1.266 5.2941h-1.2974l1.7368-7.2507h1.0567c0.1953 0.31389 0.39758 0.67311 0.60683 1.0777 0.21623 0.40456 0.42548 0.83004 0.62777 1.2764 0.20227 0.43944 0.39758 0.88236 0.58591 1.3288s0.35224 0.86841 0.49175 1.266l1.1614-4.9489h1.3078l-1.7368 7.2507h-1.0567"/><path d="m375.31 491.82c-0.64869 0-1.1439-0.19182-1.4857-0.57545-0.34178-0.38364-0.51267-0.88933-0.51267-1.5171 0-0.40456 0.0628-0.82307 0.18833-1.2555 0.12555-0.43245 0.31736-0.82655 0.57545-1.1823 0.25807-0.35573 0.58242-0.64868 0.97303-0.87887 0.39061-0.23017 0.85097-0.34526 1.3811-0.34527 0.64869 1e-5 1.1439 0.19183 1.4857 0.57545 0.34178 0.37667 0.51267 0.87888 0.51267 1.5066 0 0.41153-0.0628 0.83353-0.18833 1.266-0.11858 0.43246-0.30691 0.82656-0.56498 1.1823-0.25111 0.35573-0.57546 0.64869-0.97304 0.87887-0.39061 0.23018-0.85446 0.34527-1.3915 0.34527m0.96257-4.6873c-0.27204 1e-5 -0.51617 0.0802-0.73239 0.24065-0.20926 0.15345-0.38713 0.35224-0.5336 0.59637-0.13951 0.24413-0.24762 0.51268-0.32435 0.80563-0.0767 0.28599-0.11509 0.56499-0.11509 0.83702 0 0.34876 0.0663 0.62428 0.1988 0.82656 0.13252 0.20228 0.36619 0.30342 0.701 0.30342 0.27203 0 0.51267-0.0767 0.72193-0.23018 0.21622-0.16043 0.39409-0.35922 0.5336-0.59638 0.14647-0.24413 0.25807-0.51267 0.3348-0.80563 0.0767-0.29295 0.11509-0.57196 0.11509-0.83702 0-0.34875-0.0663-0.62427-0.19879-0.82656-0.13253-0.20925-0.3662-0.31387-0.701-0.31388"/><path d="m383.29 488.21c-0.13253 0.29994-0.2825 0.61033-0.44989 0.93119-0.16741 0.31388-0.34179 0.62428-0.52314 0.93118-0.18136 0.29993-0.36271 0.5894-0.54406 0.86841-0.18136 0.27203-0.34876 0.51616-0.50221 0.73239h-1.0463c-0.0628-0.32086-0.12555-0.68705-0.18833-1.0986-0.0558-0.41153-0.10811-0.85097-0.15694-1.3183-0.0488-0.46734-0.0942-0.95908-0.13601-1.4752-0.0349-0.51616-0.0593-1.0428-0.0732-1.5799h1.2555c-1e-5 0.29296 3e-3 0.61033 0.0105 0.95211 7e-3 0.33481 0.0174 0.68008 0.0314 1.0358 0.0209 0.34876 0.0418 0.69403 0.0628 1.0358 0.0279 0.34178 0.0628 0.66264 0.10463 0.96257 0.1953-0.29993 0.38712-0.6173 0.57545-0.95211 0.1953-0.34178 0.38014-0.68356 0.55453-1.0254 0.17437-0.34875 0.3348-0.69402 0.48128-1.0358 0.15345-0.34177 0.28598-0.66612 0.39758-0.97303h1.0881c-1e-5 0.28599 3e-3 0.5894 0.0105 0.91026 7e-3 0.32086 0.0174 0.65218 0.0314 0.99396 0.0209 0.34178 0.0418 0.69054 0.0628 1.0463 0.0279 0.34876 0.0628 0.69403 0.10462 1.0358 0.18135-0.26505 0.36619-0.56847 0.55453-0.91026 0.18832-0.34178 0.36967-0.69053 0.54406-1.0463 0.17437-0.36271 0.33131-0.71844 0.47082-1.0672 0.14647-0.35573 0.26505-0.67658 0.35574-0.96257h1.3183c-0.14649 0.41851-0.32784 0.86492-0.54406 1.3392-0.20926 0.46734-0.44642 0.94165-0.71147 1.4229-0.26506 0.48129-0.55104 0.9556-0.85794 1.4229-0.29994 0.46036-0.61382 0.88933-0.94165 1.2869h-1.0463c-0.0767-0.58591-0.143-1.1614-0.19879-1.7264-0.0488-0.57196-0.0802-1.1509-0.0942-1.7368"/></g></g></svg>
