<svg xmlns="http://www.w3.org/2000/svg" width="128" height="128" viewBox="0 0 128 128"><defs><clipPath id="a"><path d="M0 800h800V0H0v800z"/></clipPath><linearGradient x2="1" gradientUnits="userSpaceOnUse" gradientTransform="matrix(0 -160.732 -160.732 0 188.26 505.543)" id="b"><stop offset="0" stop-color="#543875"/><stop offset="1" stop-color="#b7abc5"/></linearGradient><clipPath id="c"><path d="M0 800h800V0H0v800z"/></clipPath><linearGradient x2="1" gradientUnits="userSpaceOnUse" gradientTransform="scale(221.646) rotate(-90 1.892 .317)" id="d"><stop offset="0" stop-color="#543875"/><stop offset="1" stop-color="#b7abc5"/></linearGradient><clipPath id="e"><path d="M0 800h800V0H0v800z"/></clipPath></defs><g clip-path="url(#a)" transform="matrix(.167 0 0 -.167 -3.77 129.36)"><path d="M644.437 139.594s38.034 118.892 20.075 253.02c-17.962 134.126 5.09 311.046 36.093 317.696 31.002 6.65 104.948-175.055 23.864-461.35 21.005 24.727 33.013 44.222 33.013 44.222 22.675-44-17.348-121.99-17.348-121.99l-95.698-31.598z" fill="#876fc1"/><path d="M644.437 139.594s38.034 118.892 20.075 253.02c-17.962 134.126 5.09 311.046 36.093 317.696 31.002 6.65 104.948-175.055 23.864-461.35 21.005 24.727 33.013 44.222 33.013 44.222" fill="none" stroke="#7952c5" stroke-width="10" stroke-miterlimit="10"/><path d="M772.333 259.333l30.334 117 5-82.666-33.535-55.804-1.8 21.47z" fill="#876fc1"/><path d="M412.753 215.045s-31.405-153.517 23.262-234.85h373.668v304.5l-38.335-50.5s18.78 63.13 29.39 139.233c10.61 76.1 19.344 291.806-46.023 349.953-24.033 3.482-40.94-71.85-46.153-155.85-5.214-84 .878-173.096 7.166-204.215 6.287-31.12-5.167-181.987-11.29-191.337-14.38-8.986-74.635-6.312-74.635-6.312s-11.54 26.865-4.708 72.197c-67.095 95.47-212.342-22.818-212.342-22.818" fill="#9273d0"/><path d="M412.753 215.045s-33.738-144.85 23.262-234.85" fill="none" stroke="#7952c5" stroke-width="10" stroke-miterlimit="10"/><path d="M693.015 123.195c7.476 44.046 13.598 88.387 17.607 132.89 4.697 53.644 1.315 107.6-5.6 160.893-6.474 85.943-4.352 173.372 14.048 257.806 6.147 18.645 8.882 45.677 29.81 53.432 18.977.018 26.96-22.84 34.402-36.79 30.242-75.333 33.57-158.406 30.16-238.586-3.922-73.008-16.672-145.38-35.6-215.944-11.86 2.424-6.328 8.776-.443 15.21 8.704 11.267 16.844 22.982 24.3 35.114 12.223-2.85 6.374-10.24.81-17.318-12.568-18.83-26.97-36.33-40.617-54.375 36.15 130 56.313 267.75 32.525 401.852-7.066 32.81-14.195 67.67-34.933 94.93-7.2 12.73-17.433 1.935-20.186-7.7-20.357-52.454-23.336-109.697-26.736-165.313-3.175-60.278 1.543-120.538 8.448-180.38 3.914-57.586 1.302-115.865-9.433-172.59-4.842-21.407-10.698-42.626-18.565-63.132z" fill="#7952c5"/><path d="M717.273 338.476s8.743 62.387 38.076 61.72c29.332-.667 42.79-53.187 34.3-91.57" fill="none" stroke="#7952c5" stroke-width="10" stroke-miterlimit="10"/><path d="M812.86 157c-13.894-9.528-28.504-18.108-43.95-24.872-4.63-2.017-9.374-3.764-14.196-5.267 15.152 7.425 28.688 17.704 41.5 28.586 3.505 3.01 6.954 6.083 10.29 9.276l6.355-7.72zM812.633 84.824c-17.192-10.7-35.858-18.902-54.99-25.45-9.927-3.41-20.068-6.163-30.294-8.513 26.764 9.257 52.386 22.114 75.268 38.853 1.77.676 3.917 4.795 5.125 1.803l4.89-6.692zM630.092 237.698c-1.567-29.507-.813-59.334 4.746-88.42 3.138-15.16 7.59-30.54 16.86-43.186-12.45 14.81-18.256 33.8-22.717 52.29-5.85 26.122-8.42 52.91-8.882 79.646l9.994-.33z" fill="#7952c5"/><path d="M629.803 165.666s35.49-8 74.634 6.312" fill="none" stroke="#7952c5" stroke-width="10" stroke-miterlimit="10"/><path d="M161.032 501.728s-15.642-96.285 9.83-160.84c46.805-16.555 200.972-68.277 200.972-68.277L483.7 336.334l41.002 131-45.035 97-223.305 3.23-95.33-65.835z" fill="#fff"/></g><path d="M159.363 501.005c-3.422-14.005-3.898-46.655-3.898-81.683 0-41.257 7.34-58.072 13.947-73.984 1.75-.348 3.53-.526 5.333-.526 25.576 0 46.31 35.98 46.31 80.365s-20.734 80.366-46.31 80.366c-5.392 0-10.57-1.6-15.382-4.538" fill="url(#b)" transform="matrix(.167 0 0 -.167 -3.77 129.36)"/><g clip-path="url(#c)" transform="matrix(.167 0 0 -.167 -3.77 129.36)"><path d="M157 411.25c0 35.143-2.252 54.75 1.468 77.273 1.93.553 3.906.84 5.92.84 21.1 0 38.207-31.494 38.207-70.343 0-35.71-14.455-65.208-33.182-69.74C160.82 370.333 157 372.402 157 411.25" fill="#080404"/><path d="M162.753 402.43c-2.854 5.512-2.507 12.078.776 14.666 3.282 2.587 8.257.215 11.112-5.298 2.854-5.512 2.507-12.08-.776-14.666-3.283-2.587-8.26-.215-11.113 5.297M171.396 448.673c-4.61 18.068-.912 35.602 8.257 39.16 9.17 3.56 20.338-8.2 24.947-26.27 4.61-18.068.913-35.6-8.257-39.16-9.17-3.56-20.34 8.2-24.947 26.27" fill="#fff"/></g><path d="M270.5 378.823C270.5 317.617 305.773 268 349.286 268s78.786 49.617 78.786 110.823c0 61.206-35.273 110.823-78.786 110.823S270.5 440.03 270.5 378.823" fill="url(#d)" transform="matrix(.167 0 0 -.167 -3.77 129.36)"/><g clip-path="url(#e)" transform="matrix(.167 0 0 -.167 -3.77 129.36)"><path d="M266.666 370.333c0 53.572 29.102 97 65 97 35.898 0 65-43.428 65-97 0-53.57-29.102-97-65-97-35.898 0-65 43.43-65 97" fill="#080404"/><path d="M328.887 347.454c-4.856 7.602-4.265 16.656 1.32 20.225 5.585 3.566 14.05.295 18.906-7.306 4.856-7.602 4.265-16.656-1.32-20.225-5.586-3.568-14.05-.298-18.906 7.304M343.59 411.223c-7.84 24.916-1.55 49.094 14.047 54.002 15.6 4.91 34.6-11.31 42.44-36.226 7.842-24.918 1.552-49.096-14.046-54.005-15.597-4.908-34.6 11.31-42.44 36.228" fill="#fff"/><path d="M465.08 355.076c-37.077-58.22-101.808-83.33-144.58-56.09-42.77 27.24-47.385 96.52-10.306 154.737 37.078 58.217 101.81 83.33 144.58 56.09 42.773-27.24 47.386-96.52 10.307-154.737M596.5 527L512 636.5l-349.195-94.167L161 501s-5.71-29.68-4.997-69.398c0 .55-.003 1.097-.003 1.648 0 53.71 13.207 97.25 29.5 97.25 16.292 0 29.5-43.54 29.5-97.25s-29.5-95.393-35.5-97.25c-.356 0-.706.028-1.053.07 31.155-19.618 58.634-34.842 58.634-34.842L319 217.162 459 230l65.702-5L613 268v139l-16.5 120z" fill="#9273d0"/><path d="M161 501s-19.276-73.225 9.862-160.112" fill="none" stroke="#7952c5" stroke-width="10" stroke-miterlimit="10"/><path d="M286.732 353.5c-7.822 31.085-.26 64.24 14.174 92.237 17.676 33.644 47.02 62.3 83.404 74.69 27.656 9.088 61.33 5.567 82.507-15.846 6.634-6.645 11.88-14.606 15.63-23.203-3.583 2.637 10.386-.39 13.31 1.94 6.303 1.664 12.962 4.012 17.243 9.188-7.484-10.322-21.223-14.643-33.6-14.09-9.92 19.22-28.73 34-50.466 36.73-27.363 4.27-54.685-6.403-76.224-22.76-37.912-28.757-64.038-73.858-66.61-121.708-.22-5.727-.155-11.492.632-17.177z" fill="#231f20"/><path d="M473.28 494.505c7.002-.1 14.023 1.028 20.663 3.245 4.645 1.572 9.088 3.786 13.03 6.713 1.25.908-1.127-1.04-1.476-1.393-5.813-4.89-12.833-8.18-20.1-10.278-3.935-1.115-7.965-1.946-12.046-2.286l-.07 4zM465.072 503.72c7.983.415 15.943 2.046 23.344 5.095 3.194 1.348 6.273 3 9.064 5.06 1.694 1.222 3.208 2.656 4.687 4.125-1.942-2.382-4.077-4.625-6.56-6.452-4.155-3.252-8.926-5.646-13.833-7.544-5.285-2.005-10.784-3.47-16.382-4.27l-.32 3.987zM202.307 518.902c10.466-31 15.082-64.17 12.388-96.83-2.17-25.043-9.57-49.86-23.243-71.082 18.458 30.436 23.756 67.175 20.56 102.21-1.99 21.79-6.654 43.405-14.368 63.898 1.554.6 3.11 1.203 4.663 1.804z" fill="#231f20"/><path d="M469.253 221.768c-64.35-35.575-199.85-29.297-243.796-21.45 38.714 19.358 23.63 57.788 11.596 95.98-10.55-29.887-46.648-47.325-76.468-33.722-29.546 13.476-37.14 72.08-13.08 73.243 32.437 1.568 43.947 15.17 43.947 15.17l51.982-24.18 68.172-61.096 157.647-43.946z" fill="#9273d0"/><path d="M208.053 265.455s23.594-25.18 21.807-62.683c11.816 8.01 33.79 29.982 5.538 97.47-6.676-16.987-8.128-23.535-27.345-34.787" fill="#f06891"/><path d="M237.21 208.335s-18.48 34.964 11.565 42.248c-1.794-27.26 3.325-29-11.566-42.248" fill="#e78461"/><path d="M191.452 350.99c-9.37-14.016-27.794-20.352-43.59-20.16-11.198-2.27-10.1-17.366-8.983-26.208 2.626-18.447 14.593-38.057 34.158-40.85 26.32-5.495 52.42 13.476 60.946 37.897 1.906 5.404 3.796 9.386 5.557 1.59 9.444-23.396 21.624-48.197 16.928-74.093-3.024-15.247-15.19-26.83-28.774-33.322-3.354 9.333.775 10.828 9.898 7.694 55.242-6.194 111.52-6.305 166.452 2.762 21.814 4.795 44.27 7.253 65.21 15.465-21.305-15.633-47.127-23.828-73.16-26.92-54.832-7.585-110.765-7.465-165.644-.41-6.832 1.063-13.626 2.352-20.44 3.53 14.8 7.682 33.137 14.893 36.693 33.355 3.758 21.963-6.41 43.1-14.254 63.025 6.36.544 12.998.917 5.814-6.957-14.378-27.556-50.505-43.248-79.5-29.474-22.43 11.194-32.787 38.96-29.947 62.9.75 12.54 11.93 21.586 24.167 20.486 13.023 2.286 26.896 2.42 38.468 9.688z" fill="#7952c5"/><path d="M172.095 301.29c6.51 2.964 13.62 4.1 20.565 5.58 2.24.473 4.427 1.16 6.64 1.743.417-4.09-1.99-8.018-5.257-10.313-5.968-4.27-14.902-3.915-20.335 1.095-.608.565-1.165 1.193-1.613 1.894z" fill="#7952c5"/><path d="M599.667 456.333S609.404 272.61 513 143.86c68.396 36.335 204.272 85.6 129.333 383.14M508.956 623.19s-48.48-39.24 13.04-125.508c-46.79 18.633-95.286 68.014-93.86 100.36 0 0-69.277-64.36-163.623-68.858C182.19 525.26 71.553 445.346 54.71 394.51c-4.496 120.667 27.302 215.304 155 241.168-36.42 7.924-80.402 3.542-128.07-27.168 56.513 83.82 136.822 110.368 233.747 107.073-25.756 19.485-41.03 18.286-66.692 18.898 57.177 30.65 198.2 48.023 328.655-56.48" fill="#dae5ec" stroke="#b0c0cb" stroke-width="10" stroke-miterlimit="10"/><path d="M576.334 415c130 110.667 61.333 288 18.666 338-67.334-41.333-92-164-92-164l41.333-18 25.334-70.667L576.334 415z" fill="#9273d0"/><path d="M503 589c.93 21.833 5.284 43.58 14.215 63.585 15.212 37.84 35.5 76.258 69.242 100.74 3.42 1.237 7.542 7.165 10.488 5.16 29.622-36.022 46.12-81.273 55-126.61 11.092-58.23 3.458-121.373-28.996-171.843-11.473-18.56-28.27-33.463-46.616-45.032 18.143 21.616 35.408 44.33 48.693 69.294 31.617 63.297 25.782 139.17.65 203.59-8.742 21.964-19.372 43.537-34.48 61.87 7.39-.082 6.1-2.05.453-4.982C557.928 719.73 538.584 680.23 523.88 642c-5.726-18.116-13.904-35.34-20.88-53z" fill="#7952c5"/><path d="M605 659c7.56-17.588 9.67-37.18 8.36-56.164-2.083-27.936-13.387-56.123-34.805-74.795-2.76-2.317 2.776 5.33 3.275 7.04 13.894 24.974 21.38 53.196 23.173 81.648.98 14.068.88 28.202-.003 42.272z" fill="#7952c5"/><path d="M530.016 684.823c-32.232-8.026-60.834-38.997-60.834-38.997-6.85 1.412-14.365 1.733-22.132.737-15.598-2-28.878-8.884-37.048-18.053l-.096.75s-40.46 11.837-72.23 2.133c-3.397-29.845 19.444-79.182 28.914-87.677 15.317 1.964 44.276 27.202 49.25 39.27v.002c10.22-6.81 24.807-10.12 40.406-8.12 6.514.836 12.624 2.523 18.126 4.872 7.017-7.78 23.173-14.2 33.968-13.76-13.943 13.074-14.376 19.683-14.865 27.142 1.566 1.782 2.94 3.65 4.103 5.582 10.478-7.788 44.106-7.417 57.186-2 3.748 12.16-6.476 64.278-24.748 88.12" fill="#c6b5e6"/><path d="M501.777 617.145c-2.54 19.797-27.042 32.968-54.728 29.417-27.685-3.55-48.07-22.48-45.532-42.276 2.54-19.798 27.042-32.97 54.728-29.418 6.513.836 12.623 2.523 18.126 4.872 7.016-7.78 23.173-14.2 33.967-13.76-13.944 13.074-14.376 19.683-14.866 27.142 6.213 7.063 9.402 15.46 8.303 24.023z" fill="none" stroke="#5a36a0" stroke-width="6" stroke-miterlimit="10"/><path d="M469.182 645.826s28.602 30.97 60.834 38.997c18.272-23.84 28.496-75.96 24.748-88.118-13.08-5.418-46.708-5.79-57.186 2M409.905 629.26s-40.46 11.837-72.23 2.133c-3.396-29.845 19.444-79.182 28.915-87.677 15.316 1.964 44.275 27.202 49.25 39.27" fill="none" stroke="#5a36a0" stroke-width="6" stroke-miterlimit="10"/><path d="M490.392 637.837c6.763 1.965 13.674 3.535 20.7 4.174 2.84.215 5.717.266 8.527-.275-4.4.054-8.685-1.16-12.835-2.503-4.98-1.68-9.836-3.724-14.55-6.043-.615 1.548-1.23 3.098-1.843 4.647zM402.14 612.538c-6.89 1.186-13.816 2.24-20.793 2.74-1.824.11-3.648.213-5.475.12-.378.006-1.563-.08-.585.076 1.766.38 3.54.72 5.34.9 5.357.658 10.758.887 16.15 1.05 1.93.046 3.858.08 5.788.096l-.424-4.982zM405.496 595.08c-5.597-5.055-11.468-9.864-17.914-13.803-2.495-1.47-5.103-2.833-7.942-3.495 3.85 1.624 7.023 4.44 10.053 7.248 4.368 4.174 8.374 8.714 12.13 13.443l3.673-3.393zM503.02 617.582c2.767-1.63 5.962-2.416 9.135-2.74 2.882-.248 5.8-.057 8.624.565 1.423.29 2.805.736 4.186 1.183-1.34-.775-2.688-1.53-4.106-2.152-5.517-2.437-11.797-3.266-17.72-2.01-.695.22-1.798.305-2.235.732l2.115 4.422z" fill="#5a36a0"/></g></svg>
