<svg xmlns="http://www.w3.org/2000/svg" width="128" height="128" viewBox="0 0 128 128"><defs><clipPath id="a"><path d="M0 800h800V0H0v800z"/></clipPath><linearGradient x2="1" gradientUnits="userSpaceOnUse" gradientTransform="matrix(0 -160.73193 -160.73193 0 188.26 505.543)" id="b"><stop offset="0" stop-color="#85d755"/><stop offset=".24" stop-color="#85d755"/><stop offset="1" stop-color="#c6edad"/></linearGradient><clipPath id="c"><path d="M0 800h800V0H0v800z"/></clipPath><linearGradient x2="1" gradientUnits="userSpaceOnUse" gradientTransform="scale(221.64648) rotate(-90 1.892 .317)" id="d"><stop offset="0" stop-color="#85d755"/><stop offset=".24" stop-color="#85d755"/><stop offset="1" stop-color="#c6edad"/></linearGradient><clipPath id="e"><path d="M0 800h800V0H0v800z"/></clipPath></defs><g clip-path="url(#a)" transform="rotate(180 66 65.99) scale(.166)"><path d="M413.56 233.076S379.599 67.06 438.716-20.894h404.09v226.376C763.14 142.4 632.7 164.57 632.7 164.57s-13.028 44.16-5.64 93.182c-26.495 44.337-213.502-24.676-213.502-24.676" fill="#69bf3c"/><path d="M413.56 233.076s-36.485-156.642 25.155-253.97" fill="none" stroke="#498628" stroke-width="10" stroke-miterlimit="10"/><path d="M632.055 257.452l-.145-1.638c-.082-1.085-.2-2.675-.354-4.7-.282-4.065-.61-9.894-.834-16.902-.12-3.504-.19-7.302-.235-11.322-.036-4.02-.025-8.258.054-12.643.09-4.384.213-8.917.46-13.515.215-4.6.557-9.266.957-13.928.2-2.33.464-4.654.692-6.974.285-2.31.55-4.617.86-6.9.647-4.556 1.356-9.036 2.22-13.333.43-2.15.843-4.27 1.353-6.316.243-1.026.482-2.043.718-3.047.248-1.002.534-1.978.794-2.95l.784-2.87.866-2.748.844-2.66c.314-.858.62-1.7.922-2.523l.892-2.42c.293-.79.642-1.53.95-2.27.648-1.46 1.182-2.894 1.858-4.15.64-1.278 1.24-2.474 1.796-3.58l1.726-2.93c.26-.444.51-.864.74-1.258.246-.387.504-.73.73-1.06.457-.656.846-1.214 1.163-1.666l.97-1.388s-.368.46-1.06 1.32l-1.275 1.59c-.248.315-.53.644-.8 1.015l-.828 1.21-1.932 2.835c-.632 1.076-1.317 2.24-2.047 3.485-.77 1.227-1.4 2.628-2.154 4.064-.362.725-.767 1.455-1.115 2.23-.346.778-.7 1.574-1.063 2.385-.36.815-.73 1.646-1.104 2.494l-1.03 2.63-1.064 2.73-.987 2.85c-.328.965-.683 1.94-1.002 2.936l-.93 3.038c-.657 2.043-1.215 4.157-1.798 6.307-1.164 4.3-2.184 8.788-3.145 13.365-.468 2.29-.89 4.606-1.338 6.932-.386 2.33-.81 4.67-1.17 7.017-.72 4.694-1.378 9.4-1.905 14.043-.56 4.643-.99 9.223-1.375 13.66-.376 4.436-.672 8.73-.906 12.807-.228 4.075-.41 7.933-.526 11.495-.246 7.126-.305 13.073-.292 17.248l.043 4.86.038 1.744 9.982-.6z" fill="#498628"/><path d="M632.7 164.57s127.556-23.25 210.105 40.912" fill="none" stroke="#498628" stroke-width="10" stroke-miterlimit="10"/><path d="M161.032 501.728s-15.642-96.285 9.83-160.84c46.805-16.555 200.972-68.277 200.972-68.277L483.7 336.334l41.002 131-45.035 97-223.305 3.23-95.33-65.835z" fill="#fff"/></g><path d="M159.363 501.005c-3.422-14.005-3.898-46.655-3.898-81.683 0-41.257 7.34-58.072 13.947-73.984 1.75-.348 3.53-.526 5.333-.526 25.576 0 46.31 35.98 46.31 80.365s-20.734 80.366-46.31 80.366c-5.392 0-10.57-1.6-15.382-4.538" fill="url(#b)" transform="rotate(180 66 65.99) scale(.166)"/><g clip-path="url(#c)" transform="rotate(180 66 65.99) scale(.166)"><path d="M157 411.25c0 35.143-2.252 54.75 1.468 77.273 1.93.553 3.906.84 5.92.84 21.1 0 38.207-31.494 38.207-70.343 0-35.71-14.455-65.208-33.182-69.74C160.82 370.333 157 372.402 157 411.25" fill="#080404"/><path d="M162.753 402.43c-2.854 5.512-2.507 12.078.776 14.666 3.282 2.587 8.257.215 11.112-5.298 2.854-5.512 2.507-12.08-.776-14.666-3.283-2.587-8.26-.215-11.113 5.297M171.396 448.673c-4.61 18.068-.912 35.602 8.257 39.16 9.17 3.56 20.338-8.2 24.947-26.27 4.61-18.068.913-35.6-8.257-39.16-9.17-3.56-20.34 8.2-24.947 26.27" fill="#fff"/></g><path d="M270.5 378.823C270.5 317.617 305.773 268 349.286 268s78.786 49.617 78.786 110.823c0 61.206-35.273 110.823-78.786 110.823S270.5 440.03 270.5 378.823" fill="url(#d)" transform="rotate(180 66 65.99) scale(.166)"/><g clip-path="url(#e)" transform="rotate(180 66 65.99) scale(.166)"><path d="M266.666 370.333c0 53.572 29.102 97 65 97 35.898 0 65-43.428 65-97 0-53.57-29.102-97-65-97-35.898 0-65 43.43-65 97" fill="#080404"/><path d="M328.887 347.454c-4.856 7.602-4.265 16.656 1.32 20.225 5.585 3.566 14.05.295 18.906-7.306 4.856-7.602 4.265-16.656-1.32-20.225-5.586-3.568-14.05-.298-18.906 7.304M343.59 411.223c-7.84 24.916-1.55 49.094 14.047 54.002 15.6 4.91 34.6-11.31 42.44-36.226 7.842-24.918 1.552-49.096-14.046-54.005-15.597-4.908-34.6 11.31-42.44 36.228" fill="#fff"/><path d="M465.08 355.076c-37.077-58.22-101.808-83.33-144.58-56.09-42.77 27.24-47.385 96.52-10.306 154.737 37.078 58.217 101.81 83.33 144.58 56.09 42.773-27.24 47.386-96.52 10.307-154.737M596.5 527L512 636.5l-349.195-94.167L161 501s-5.71-29.68-4.997-69.398c0 .55-.003 1.097-.003 1.648 0 53.71 13.207 97.25 29.5 97.25 16.292 0 29.5-43.54 29.5-97.25s-29.5-95.393-35.5-97.25c-.356 0-.706.028-1.053.07 31.155-19.618 58.634-34.842 58.634-34.842L319 217.162 459 230l65.702-5 68.675 81.5L613 407l-16.5 120z" fill="#69bf3c"/><path d="M161 501s-19.276-73.225 9.862-160.112" fill="none" stroke="#498628" stroke-width="10" stroke-miterlimit="10"/><path d="M286.732 353.5c-7.822 31.085-.26 64.24 14.174 92.237 17.676 33.644 47.02 62.3 83.404 74.69 27.656 9.088 61.33 5.567 82.507-15.846 6.634-6.645 11.88-14.606 15.63-23.203-3.583 2.637 10.386-.39 13.31 1.94 6.303 1.664 12.962 4.012 17.243 9.188-7.484-10.322-21.223-14.643-33.6-14.09-9.92 19.22-28.73 34-50.466 36.73-27.363 4.27-54.685-6.403-76.224-22.76-37.912-28.757-64.038-73.858-66.61-121.708-.22-5.727-.155-11.492.632-17.177z" fill="#231f20"/><path d="M473.28 494.505c7.002-.1 14.023 1.028 20.663 3.245 4.645 1.572 9.088 3.786 13.03 6.713 1.25.908-1.127-1.04-1.476-1.393-5.813-4.89-12.833-8.18-20.1-10.278-3.935-1.115-7.965-1.946-12.046-2.286l-.07 4zM465.072 503.72c9.27.507 18.557 2.553 26.88 6.745 3.798 1.92 7.26 4.473 10.215 7.535-4.92-6.292-11.91-10.603-19.246-13.54-5.63-2.255-11.523-3.863-17.528-4.726l-.32 3.987zM206.91 508.32c8.156-29.84 11.412-61.23 8.097-92.045-2.472-21.988-9.05-43.816-21.357-62.36 17.047 27.553 21.492 60.984 19.504 92.826-1.33 20.348-4.9 40.594-11.008 60.058l4.764 1.52z" fill="#231f20"/><path d="M459.016 208.486c-251.544-36.66-306.278 46.1-319.67 75.54-14.208 31.23.616 49.743 23.27 52.764 35.395 4.722 44.857 21.106 44.857 21.106l59.975-57.21 191.568-92.2z" fill="#69bf3c"/><path d="M207.473 357.897c-9.538-16.17-28.857-24.368-46.858-26.517-13.764-1.69-24.444-15.175-21.565-29.043 6.03-32.613 33.27-56.935 61.796-71.145 51.268-25.014 109.72-27.746 165.765-26.674 30.85-.508 61.677 1.4 92.406 3.97-45.413-8.696-91.553-16.416-137.96-13.737-53.293 2.6-109.666 11.758-152.89 45.36-20.51 16.95-39.276 40.99-39.32 68.75.113 18.818 17.718 32.203 35.394 33.307 15.194 2.265 31.9 4.165 43.233 15.73z" fill="#498628"/><path d="M162.615 295.272c7.302 2.243 15.026 2.026 22.512 3.203 2.39.44 4.705 1.21 6.952 2.122.766-.743.12-2.16.068-3.145-1.096-4.542-5.133-7.878-9.518-9.088-6.897-2.004-15.023.305-19.453 6.054-.2.276-.397.556-.562.854zM168.754 251.842c11.03-2.76 23.352-1.453 33.04 4.72 9.01 5.684 14.93 15.117 18.488 24.964-2.19-10.675-7.024-21.16-15.382-28.395-10.05-8.864-24.035-12.345-37.21-11.2-1.63-.304-.552 1.338-.536 2.212l1.6 7.7z" fill="#498628"/><path d="M601 136c3-93 78.253-120.094 136.753-105.547C711.246 35.448 672 60.26 670 111.76c8-29 52-48.76 79-49.76-44 27-74 155.162-48 353 15.34 116.716-58.155 214-58.155 214L603 444l-2-308z" fill="#9ee58e"/><path d="M642.845 629S716.34 531.716 701 415c-26-197.838 4-326 48-353-27 1-71 20.76-79 49.76 2-51.5 41.246-76.312 67.753-81.307C679.253 15.906 604 43 601 136" fill="none" stroke="#62d44f" stroke-width="10" stroke-miterlimit="10"/><path d="M593.377 467.334S576 256.324 521 217.164C534 214 552.39 211 570.195 227 568 211 567.402 125.185 632.7 106.093c-8.7 28.91-27.7 51.873-19.7 99.39 8 47.52 62.956 192.866 0 304.38" fill="#f3f3f3" stroke="#dedede" stroke-width="10" stroke-miterlimit="10"/><path d="M208.72 497.162S85.572 465.255 37.627 526.945c30.18 9.033 57.306 4.478 96.14 66.055 38.837 61.578 81.167 138.82 166.64 141.357-11.57 15.324-15.45 36.643 39.006 47.648C325.6 761 315.637 751.115 383.79 744.09c68.153-7.025 148.7-25.203 186.406-61.47" fill="#9ee58e" stroke="#62d44f" stroke-width="10" stroke-miterlimit="10"/><path d="M519.915 596.69s-69.293 19.728-160.552-61.95c-91.26-81.676-173.87-54.447-170.063 9.333 25.247-13.946 63.912-42.442 132.67 38.242C390.726 663 484.69 684.448 551.518 639.14" fill="#f3f3f3" stroke="#dedede" stroke-width="10" stroke-miterlimit="10"/><path d="M248.776 583.434s-83.76 150.46-66.397 165.458c17.36 14.997 101.37-119.136 112.33-136.43" fill="#69bf3c"/><path d="M209.964 731.82s7.91-18.97-11.427-48.302M251.785 677.533s7.375-36.768-19.018-64.288" fill="none" stroke="#498628" stroke-width="6" stroke-miterlimit="10"/><path d="M248.776 583.434s-83.76 150.46-66.397 165.458c17.36 14.997 101.37-119.136 112.33-136.43" fill="none" stroke="#498628" stroke-width="10" stroke-miterlimit="10"/><path d="M226.017 574.954l4.083 2.31c2.566 1.425 6.23 3.46 10.627 5.904l7.01 3.907 7.727 4.404c2.67 1.525 5.384 3.16 8.15 4.793 2.736 1.682 5.53 3.353 8.25 5.133 1.37.873 2.752 1.73 4.083 2.644.67.45 1.34.9 2.02 1.332l1.983 1.356c2.632 1.807 5.197 3.618 7.645 5.424 2.445 1.81 4.79 3.59 6.973 5.343 1.13.84 2.142 1.743 3.173 2.574.515.417 1.02.83 1.518 1.232.48.42.954.832 1.417 1.235 1.904 1.577 3.55 3.128 5.083 4.467 1.496 1.388 2.8 2.598 3.876 3.594 1.035 1.04 1.91 1.832 2.485 2.39l.913.838s-.15-.402-.434-1.154c-.306-.742-.72-1.855-1.33-3.24-.65-1.35-1.463-2.994-2.488-4.834-1.07-1.8-2.29-3.855-3.81-5.95-.735-1.076-1.55-2.154-2.422-3.246-.868-1.096-1.773-2.232-2.765-3.337-1.957-2.242-4.134-4.51-6.507-6.72-1.184-1.108-2.4-2.227-3.688-3.283-.638-.538-1.28-1.078-1.926-1.62-.65-.54-1.334-1.035-2.005-1.557-1.347-1.04-2.707-2.083-4.133-3.04-1.402-.995-2.843-1.936-4.286-2.877-1.445-.938-2.94-1.785-4.404-2.678-1.474-.87-2.987-1.66-4.472-2.467-1.5-.778-2.984-1.558-4.49-2.244-1.493-.714-2.97-1.41-4.456-2.02-5.896-2.55-11.587-4.44-16.542-5.755-4.953-1.328-9.176-2.064-12.15-2.45-2.98-.376-4.71-.41-4.71-.41" fill="#62d44f"/><path d="M576.334 415c130 110.667 61.333 288 18.666 338-67.334-41.333-92-164-92-164l41.333-18 25.334-70.667L576.334 415z" fill="#69bf3c"/><path d="M503 589c.93 21.833 5.284 43.58 14.215 63.585 15.212 37.84 35.5 76.258 69.242 100.74 3.42 1.237 7.542 7.165 10.488 5.16 29.622-36.022 46.12-81.273 55-126.61 11.092-58.23 3.458-121.373-28.996-171.843-11.473-18.56-28.27-33.463-46.616-45.032 18.143 21.616 35.408 44.33 48.693 69.294 31.617 63.297 25.782 139.17.65 203.59-8.742 21.964-19.372 43.537-34.48 61.87 7.39-.082 6.1-2.05.453-4.982C557.928 719.73 538.584 680.23 523.88 642c-5.726-18.116-13.904-35.34-20.88-53z" fill="#498628"/><path d="M605 659c7.56-17.588 9.67-37.18 8.36-56.164-2.083-27.936-13.387-56.123-34.805-74.795-2.76-2.317 2.776 5.33 3.275 7.04 13.894 24.974 21.38 53.196 23.173 81.648.98 14.068.88 28.202-.003 42.272z" fill="#498628"/><path d="M518.873 543.558L482.073 527l-28.838 78.85-23.534-47.282-29.7 13.556 47.53 103.16 107.31-43.635-14.93-31.978-50.028 18.98 28.99-75.094z" fill="#b5e997"/><path d="M518.873 543.558L482.073 527l-28.838 78.85-23.534-47.282-29.7 13.556 47.53 103.16 107.31-43.635-14.93-31.978-50.028 18.98 28.99-75.094z" fill="none" stroke="#85d856" stroke-width="5" stroke-miterlimit="10"/></g></svg>
