<svg xmlns="http://www.w3.org/2000/svg" width="128" height="128" viewBox="0 0 128 128"><defs><clipPath id="a"><path d="M0 800h800V0H0v800z"/></clipPath><linearGradient x2="1" gradientUnits="userSpaceOnUse" gradientTransform="matrix(0 -156.39258 -156.39258 0 150.946 519.034)" id="b"><stop offset="0" stop-color="#f37877"/><stop offset=".398" stop-color="#f37877"/><stop offset="1" stop-color="#fbcdce"/></linearGradient><clipPath id="c"><path d="M0 800h800V0H0v800z"/></clipPath><linearGradient x2="1" gradientUnits="userSpaceOnUse" gradientTransform="scale(204.2578) rotate(-90 2.008 .464)" id="d"><stop offset="0" stop-color="#f37877"/><stop offset=".398" stop-color="#f37877"/><stop offset="1" stop-color="#fbcdce"/></linearGradient><clipPath id="e"><path d="M0 800h800V0H0v800z"/></clipPath></defs><g clip-path="url(#a)" transform="matrix(.16317 0 0 -.16317 .654 131.86)"><path d="M381.424 246.302S347.462 80.287 406.58-7.668h404.088V218.71c-79.665-63.082-210.103-40.912-210.103-40.912s-13.027 44.16-5.638 93.182c-26.496 44.337-213.503-24.676-213.503-24.676" fill="#fe4f4d"/><path d="M381.424 246.302S344.94 89.66 406.58-7.668" fill="none" stroke="#cf0800" stroke-width="10" stroke-miterlimit="10"/><path d="M599.918 270.678l-.145-1.638c-.082-1.085-.2-2.675-.354-4.7-.283-4.065-.612-9.894-.835-16.902-.12-3.504-.19-7.302-.235-11.322-.036-4.02-.025-8.258.054-12.643.09-4.384.212-8.917.46-13.515.214-4.6.556-9.266.956-13.928.2-2.33.464-4.654.692-6.974.286-2.31.552-4.617.862-6.9.646-4.556 1.355-9.036 2.218-13.333.432-2.15.844-4.27 1.354-6.316.243-1.027.482-2.044.718-3.048.247-1.003.533-1.98.793-2.95l.784-2.87.867-2.75c.287-.9.568-1.79.844-2.66.315-.857.622-1.698.923-2.522l.892-2.42c.293-.79.642-1.53.95-2.27.648-1.46 1.182-2.894 1.858-4.15.64-1.278 1.24-2.474 1.796-3.58l1.725-2.93c.26-.444.51-.864.74-1.258.246-.387.504-.73.73-1.06.457-.656.846-1.214 1.163-1.665l.97-1.39s-.368.46-1.06 1.32l-1.275 1.59c-.248.316-.53.645-.8 1.016l-.828 1.212-1.932 2.834-2.047 3.484c-.77 1.228-1.4 2.63-2.154 4.065-.36.726-.766 1.456-1.114 2.232-.346.777-.7 1.573-1.063 2.384-.36.816-.73 1.647-1.104 2.495-.336.86-.68 1.74-1.03 2.63l-1.063 2.73-.987 2.85c-.328.966-.683 1.94-1.002 2.937l-.93 3.038c-.657 2.043-1.215 4.157-1.798 6.307-1.164 4.3-2.184 8.787-3.145 13.364-.468 2.29-.89 4.607-1.338 6.933-.386 2.33-.81 4.67-1.17 7.017-.72 4.694-1.378 9.4-1.905 14.043-.56 4.643-.99 9.223-1.374 13.66-.376 4.436-.672 8.73-.906 12.807-.227 4.075-.41 7.933-.525 11.495-.246 7.126-.305 13.074-.292 17.25l.043 4.858.038 1.745 9.982-.6z" fill="#cf363a"/><path d="M600.564 177.796s127.555-23.25 210.105 40.912" fill="none" stroke="#cf0800" stroke-width="10" stroke-miterlimit="10"/><path d="M122.48 544.64s-16.428-104.125 10.326-173.935C181.968 352.803 343.9 296.87 343.9 296.87l117.5 68.91 43.068 141.665-47.303 104.897-234.553 3.492-100.13-71.195z" fill="#fff"/></g><path d="M123.636 514.618c-3.234-13.627-3.685-45.396-3.685-79.48 0-40.14 6.937-56.502 13.183-71.984 1.654-.34 3.335-.513 5.04-.513 24.17 0 43.766 35.01 43.766 78.197 0 43.188-19.597 78.197-43.768 78.197-5.095 0-9.988-1.556-14.536-4.416" fill="url(#b)" transform="matrix(.16317 0 0 -.16317 .654 131.86)"/><g clip-path="url(#c)" transform="matrix(.16317 0 0 -.16317 .654 131.86)"><path d="M121.402 427.286c0 34.194-2.128 53.272 1.388 75.188 1.823.537 3.69.816 5.593.816 19.943 0 36.11-30.643 36.11-68.443 0-34.748-13.662-63.45-31.36-67.858-8.12 20.483-11.73 22.497-11.73 60.296"/><path d="M126.84 418.704c-2.7 5.364-2.37 11.753.732 14.27 3.103 2.518 7.805.21 10.503-5.154 2.698-5.364 2.37-11.753-.733-14.27-3.104-2.517-7.806-.21-10.503 5.154M135.007 463.7c-4.356 17.58-.86 34.64 7.804 38.103 8.665 3.464 19.22-7.98 23.577-25.56 4.356-17.583.863-34.642-7.803-38.106-8.665-3.463-19.222 7.98-23.577 25.562" fill="#fff"/></g><path d="M244.712 402.79c0-56.405 31.573-102.13 70.52-102.13 38.947 0 70.52 45.725 70.52 102.13 0 56.403-31.573 102.127-70.52 102.127-38.947 0-70.52-45.724-70.52-102.127" fill="url(#d)" transform="matrix(.16317 0 0 -.16317 .654 131.86)"/><g clip-path="url(#e)" transform="matrix(.16317 0 0 -.16317 .654 131.86)"><path d="M241.28 394.965c0 49.37 26.048 89.39 58.18 89.39 32.133 0 58.18-40.02 58.18-89.39 0-49.367-26.047-89.39-58.18-89.39-32.132 0-58.18 40.023-58.18 89.39"/><path d="M296.973 373.882c-4.347 7.005-3.817 15.35 1.18 18.638 5 3.287 12.576.273 16.924-6.732 4.346-7.005 3.817-15.35-1.182-18.638-5-3.288-12.575-.274-16.922 6.732M310.133 432.648c-7.018 22.96-1.388 45.242 12.574 49.765 13.962 4.524 30.97-10.423 37.988-33.384 7.02-22.963 1.39-45.244-12.573-49.77-13.962-4.522-30.97 10.425-37.99 33.388" fill="#fff"/><path d="M441.844 386.05c-38.946-62.96-106.937-90.115-151.862-60.658-44.925 29.46-49.772 104.377-10.825 167.335 7.137 11.54 13.01 18.36 21.78 27.367 32.035-14.088 111.59-27.608 166.237-30.337 4.02-29.876-2.85-67.37-25.33-103.708m138.038 185.92l-88.756 118.414-360.592-78.763-8.086-67.767s-6-32.096-5.248-75.048c-.002.594-.003 1.186-.003 1.782 0 58.082 13.872 105.167 30.985 105.167s30.986-47.085 30.986-105.167S148.182 367.43 141.88 365.42c-.373 0-.74.03-1.106.074 32.725-21.214 61.588-37.676 61.588-37.676l86.044-90.91 147.05 13.882 69.012-5.407 90.27 60.87 12.792 136.07-27.648 129.646z" fill="#fe4f4d"/><path d="M122.448 543.852s-20.247-79.186 10.358-173.147" fill="none" stroke="#cf363a" stroke-width="10" stroke-miterlimit="10"/><path d="M303.018 517.933c-19.823-19.79-34.557-44.65-42.754-71.416-6.813-22.452-8.25-46.465-4.274-69.584-6.677 30.966-3.064 63.8 9.273 92.906 8.13 19.18 19.288 37.218 33.59 52.413 1.39-1.44 2.777-2.88 4.165-4.32zM177.53 523.33c4.546-28.026 4.52-56.9-.704-84.835-3.627-19.024-10.12-37.632-20.334-54.15 17.12 30.085 22.056 65.552 20.688 99.718-.576 12.835-1.915 25.666-4.547 38.25 1.632.34 3.264.68 4.896 1.018z"/><path d="M526.935 494.235c-41.004-11.063-84.27-7.823-125.78-1.554-39.52 6.433-78.478 16.637-115.896 30.913 2.853 9.606 10.47 17.52 19.667 21.34-8.547-2.733-14.306-16.768-17.2-19.516 9.564-1.783 22.158-5.66 32.943-8.016 55.878-13.127 112.635-24.748 170.24-25.292 12.038-.05 24.08.628 36.025 2.127z"/><path d="M469.23 492.074c12.12 1.66 24.2 4 35.818 7.882 4.59 1.597 9.115 3.484 13.194 6.157-6.173-4.71-13.444-7.67-20.69-10.303-9.035-3.182-18.303-5.687-27.67-7.682l-.65 3.946z"/><path d="M459.93 492.434c7.695 1.38 15.262 3.78 22.157 7.5 3.828 2.11 7.46 4.697 10.324 8.026.466.545 2.167 2.76.95 1.01-2.374-3.818-5.706-6.953-9.323-9.584-6.62-4.767-14.183-8.106-21.96-10.488-.863-.42-1.56-.53-1.516.565l-.63 2.97z"/><path d="M166.74 520.094l12.022 3.933s4.057 7.436 2.39 19.218" fill="none" stroke="#000" stroke-width="4" stroke-miterlimit="10"/><path d="M516.674 654C499.64 670.626 103.65 742.996 111.82 252.37c-28.693 58.602-70.992 130.086-46.437 217.28-15.69-11.31-24.573-25.722-26.426-37.898-9.96 45.213-29.657 205.284 71.773 293.815 105.205 91.827 336.97 89.77 473.43-58.303" fill="#ffb6b5" stroke="#ff9493" stroke-width="10" stroke-miterlimit="10"/><path d="M528.51 657.79S259.54 800.415 65.383 469.65M553.798 669.18S283.41 819.584 84.964 698.486" fill="none" stroke="#ff9493" stroke-width="5" stroke-miterlimit="10"/><path d="M156.492 384.345s-14.457-14.696-38.956-16c-24.498-1.303-23.222-25.79-21.234-36.67 2.65-14.512 42.505-149.1 339.154-80.885" fill="#fe4f4d"/><path d="M162.506 259.702c8.74 7.56 19.737 12.422 31.132 14.203 12 1.88 24.418-.26 35.422-5.272-12.19 3.525-25.553 3.645-37.488-.934-8.28-3.16-15.967-8.163-21.8-14.87-2.423 2.29-4.844 4.58-7.266 6.872z" fill="#cf0800"/><path d="M156.492 384.345c-10.9-13.537-27.932-20.553-44.864-22.068-13.705-5.198-12.6-22.873-9.137-34.517 14.007-40.282 53.333-65.55 92.565-77.243 50.678-15.422 104.494-13.748 156.67-9.123 28.045 1.732 55.96 5.17 83.73 9.396-44.098-12.028-89.165-22.465-135.124-22.55-55.42-.99-114.343 5.735-161.19 37.872-23.453 16.778-44.744 41.162-48.566 70.68-2.4 15.165 5.103 33.957 22.042 36.01 14.733.856 30.22 1.976 42.752 10.767l1.124.775z" fill="#cf0800"/><path d="M135.753 336.11c8.69 4.224 18.38 5.452 27.655 7.78 1.14.203 3.498 1.443 2.574-.717-.838-4.84-4.68-8.7-9.076-10.606-6.496-2.894-14.75-2.19-20.206 2.554-.328.317-.665.63-.947.99z" fill="#cf0800"/><path d="M583.93 489.15s23.6-186.452-95.163-226.788c35.686-51.585 62.722-224.61 12.654-287.332 269.955-13.698 200.707 327.307 142.35 506.822" fill="#ffb6b5" stroke="#ff9493" stroke-width="10" stroke-miterlimit="10"/><path d="M607.224 485.456s21.24-248.9-88.98-302.883M626.466 485.456s85.71-371.84-99.53-436.086" fill="none" stroke="#ff9493" stroke-width="5" stroke-miterlimit="10"/><path d="M464.336 636.854c169.34 114.63 272.51-87.584 285.775-162.17-84.98-42.28-197.81 19.44-197.81 19.44l13.96 53.163-43.974 69.992-57.95 19.574z" fill="#fe4f4d"/><path d="M552.3 494.125c20.66-7.087 41.91-12.188 62.584-19.183 43.112-12.11 91.673-16.142 133 4.22-3.73-11.515-3.692 3.263-5.616 7.877-13.61 49.198-38.508 96.043-74.828 132.238-28.777 28.83-68.96 48.052-110.3 45.058-32.52-2.166-64.173-12.036-92.804-27.482 29.158 20.993 63.474 38.352 100.246 37.705 45.316.686 87.7-23.162 117.58-56.043 34.305-37.63 58.407-84.337 70.927-133.594-.438-4.653 6.133-13.088-.752-14.715-44.544-22-96.956-17.54-143.305-3.996-20.677 5.097-39.518 15.603-56.733 27.913z" fill="#cf0800"/><path d="M394.585 729.044l39.792 6.722 7.978-83.577 34.717 39.8 25.312-20.622-72.054-87.802-92.8 69.333 22.525 27.167 43.608-31.004-9.078 79.98z" fill="#f59091"/><path d="M394.585 729.044l39.792 6.722 7.978-83.577 34.717 39.8 25.312-20.622-72.054-87.802-92.8 69.333 22.525 27.167 43.608-31.004-9.078 79.98z" fill="none" stroke="#f04f4b" stroke-width="5" stroke-miterlimit="10"/></g></svg>
