<?xml version="1.0" encoding="UTF-8" standalone="no"?>
<svg xmlns="http://www.w3.org/2000/svg" version="1.1" viewBox="0 0 800 950"><defs><marker id="a" orient="auto" overflow="visible" refX="0" refY="0"><path d="m8.7186 4.0337-10.926-4.0177 10.926-4.0177c-1.7455 2.3721-1.7354 5.6175-6e-7 8.0354z" fill-rule="evenodd" stroke-linejoin="round" stroke-width=".625" transform="matrix(-1.1,0,0,-1.1,-1.1,0)"></path></marker></defs><g transform="translate(0 -102.36)"><g><rect fill="#fff" height="1059.2" transform="translate(0 102.36)" width="954.59" x="-86.267" y="-49.849"></rect><rect fill="#c8c3ff" height="21.213" style="color:#000000" width="21.213" x="527.33" y="998.65"></rect><text fill="#000000" font-family="Sans" font-size="40px" line-height="125%" style="word-spacing:0px;letter-spacing:0px" x="561.60187" y="1015.5944" xml:space="preserve"><tspan font-size="18px" x="561.60187" y="1015.5944">Returned</tspan></text><rect fill="#fff" height="370.28" stroke="#000" stroke-width="1.2617px" style="color:#000000" width="483.32" x="157.3" y="606.49"></rect></g><g fill="#000000"><g font-family="Sans"><text font-size="20px" line-height="100%" style="word-spacing:0px;letter-spacing:0px" x="246.07909" y="913.60107" xml:space="preserve"><tspan font-family="Sans" line-height="100%" x="246.07909" y="913.60107">Tagged</tspan><tspan font-family="Anonymous Pro" line-height="100%" x="246.07909" y="936.59906">fluttershy</tspan></text><text font-size="20px" line-height="100%" style="word-spacing:0px;letter-spacing:0px;text-anchor:end;text-align:end" x="556.48749" y="913.7085" xml:space="preserve"><tspan font-family="Sans" line-height="100%" style="text-anchor:end;text-align:end" x="556.48749" y="913.7085">Tagged</tspan><tspan font-family="Anonymous Pro" style="text-anchor:end;text-align:end" x="556.48749" y="936.70648">pinkie pie</tspan></text><text font-size="26.611px" line-height="125%" style="word-spacing:0px;letter-spacing:0px" x="605.09064" y="636.8548" xml:space="preserve"><tspan font-family="Adobe Garamond Pro" font-style="italic" x="605.09064" y="636.8548">U</tspan></text></g><text font-family="Anonymous Pro" font-size="40px" line-height="125%" style="word-spacing:0px;letter-spacing:0px;text-anchor:middle;text-align:center" x="400.35477" y="169.62521" xml:space="preserve"><tspan font-size="32px" x="400.35477" y="169.62521">twilight sparkle || fluttershy &amp;&amp; pinkie pie</tspan></text></g><g fill="none" stroke="#000" stroke-width="0.905" transform="translate(206.88 -31.143)"><path d="m87.634 920.49 1.011-44.44" marker-end="url(#a)"></path><path d="m289.41 920.49 1.0101-44.447" marker-end="url(#a)"></path></g><path d="m398.94 644c-16.25 14.62-26.5 35.8-26.5 59.38 0 22.99 9.75 43.7 25.31 58.28 16.25-14.62 26.47-35.8 26.47-59.38 0-23-9.73-43.71-25.28-58.28z" fill="#c8c3ff" style="color:#000000" transform="translate(0 102.36)"></path><path d="m363.65 227.46a146.47 146.47 0 0 1 -146.47 146.47 146.47 146.47 0 0 1 -146.47 -146.47 146.47 146.47 0 0 1 146.47 -146.47 146.47 146.47 0 0 1 146.47 146.47z" fill="#c8c3ff" stroke="#000" stroke-width="1px" style="color:#000000" transform="matrix(.54530 0 0 .54530 279.91 605.33)"></path><g transform="translate(97.01 -127.14)"><g><path d="m393.98 500.28v9.0457c-2.1974 0.24544-4.3345 0.65791-6.4142 1.2335l-3.3716-8.3878-8.6345 3.4949 3.3716 8.3673c-2.1617 1.1712-4.1977 2.5269-6.1058 4.05l-6.3936-6.3937-6.5787 6.5787 6.3936 6.3936c-1.3568 1.7004-2.5802 3.5032-3.6594 5.4069l-8.3056-3.536-3.6388 8.5523 8.3056 3.536c-0.68947 2.3138-1.1832 4.7109-1.4596 7.1749h-9.0251v9.3129h9.0251c0.2455 2.196 0.65827 4.3358 1.2335 6.4142l-8.3673 3.3716 3.4744 8.6345 8.3673-3.3716c1.1673 2.1545 2.533 4.1826 4.05 6.0853l-6.3936 6.3936 6.5787 6.5787 6.3936-6.3936c1.6989 1.3564 3.505 2.5801 5.4069 3.6594l-3.536 8.3261 8.5523 3.6388 3.536-8.3056c2.3205 0.69142 4.7239 1.1837 7.1954 1.4596v9.0251h9.2924v-9.0251c2.1981-0.24541 4.3338-0.67829 6.4142-1.2541l3.3716 8.3878 8.6345-3.4744-3.3716-8.3673c2.163-1.1719 4.1967-2.5463 6.1058-4.0706l6.3936 6.3936 6.5787-6.5787-6.3936-6.3936c1.3506-1.694 2.5841-3.4908 3.6594-5.3863l8.3056 3.536 3.6388-8.5728-8.285-3.536c0.68791-2.3128 1.1638-4.7122 1.4391-7.1749h9.0457v-9.3129h-9.0457c-0.24526-2.186-0.66142-4.3241-1.2335-6.3937l8.3673-3.3716-3.4744-8.6345-8.3673 3.3716c-1.1699-2.1594-2.5289-4.1995-4.05-6.1058l6.3936-6.3936-6.5787-6.5787-6.3936 6.3937c-1.6996-1.3567-3.5042-2.58-5.4069-3.6594l3.536-8.3056-8.5523-3.6388-3.536 8.3056c-2.3215-0.69207-4.7228-1.1835-7.1954-1.4596v-9.0457h-9.2924z" fill="#fff" stroke="#000" stroke-width=".65787px" style="color:#000000"></path><text fill="#000000" font-family="Sans" font-size="40px" line-height="125%" style="word-spacing:0px;letter-spacing:0px" x="383.22324" y="556.82208" xml:space="preserve"><tspan font-family="Anonymous Pro" font-size="20px" x="383.22324" y="556.82208">AND</tspan></text><text fill="#000000" font-family="Sans" font-size="40px" line-height="125%" style="word-spacing:0px;letter-spacing:0px" x="572.99268" y="665.76184" xml:space="preserve"><tspan font-family="Anonymous Pro" font-size="20px" style="text-anchor:end;text-align:end" x="572.99268" y="665.76184">pinkie pie</tspan></text></g><path d="m291.54 638.85 60.609-48.487" fill="none" marker-end="url(#a)" stroke="#000"></path><path d="m504.2 638.85-60.61-48.49" fill="none" marker-end="url(#a)" stroke="#000"></path><g><path d="m236.12 362.12v9.0457c-2.1974 0.24544-4.3345 0.65791-6.4142 1.2335l-3.3716-8.3878-8.6345 3.4949 3.3716 8.3673c-2.1617 1.1712-4.1977 2.5269-6.1058 4.05l-6.3936-6.3937-6.5787 6.5787 6.3936 6.3936c-1.3568 1.7004-2.5802 3.5032-3.6594 5.4069l-8.3056-3.536-3.6388 8.5523 8.3056 3.536c-0.68947 2.3138-1.1832 4.7109-1.4596 7.1749h-9.0251v9.3129h9.0251c0.2455 2.196 0.65827 4.3358 1.2335 6.4142l-8.3673 3.3716 3.4744 8.6345 8.3673-3.3716c1.1673 2.1545 2.533 4.1826 4.05 6.0853l-6.3936 6.3936 6.5787 6.5787 6.3936-6.3936c1.6989 1.3564 3.505 2.5801 5.4069 3.6594l-3.536 8.3261 8.5523 3.6388 3.536-8.3056c2.3205 0.69142 4.7239 1.1837 7.1954 1.4596v9.0251h9.2924v-9.0251c2.1981-0.24541 4.3338-0.67829 6.4142-1.2541l3.3716 8.3878 8.6345-3.4744-3.3716-8.3673c2.163-1.1719 4.1967-2.5463 6.1058-4.0706l6.3936 6.3936 6.5787-6.5787-6.3936-6.3936c1.3506-1.694 2.5841-3.4908 3.6594-5.3863l8.3056 3.536 3.6388-8.5728-8.285-3.536c0.68791-2.3128 1.1638-4.7122 1.4391-7.1749h9.0457v-9.3129h-9.0457c-0.24526-2.186-0.66142-4.3241-1.2335-6.3937l8.3673-3.3716-3.4744-8.6345-8.3673 3.3716c-1.1699-2.1594-2.5289-4.1995-4.05-6.1058l6.3936-6.3936-6.5787-6.5787-6.3936 6.3937c-1.6996-1.3567-3.5042-2.58-5.4069-3.6594l3.536-8.3056-8.5523-3.6388-3.536 8.3056c-2.3215-0.69207-4.7228-1.1835-7.1954-1.4596v-9.0457h-9.2924z" fill="#fff" stroke="#000" stroke-width=".65787px" style="color:#000000"></path><text fill="#000000" font-family="Sans" font-size="40px" line-height="125%" style="word-spacing:0px;letter-spacing:0px" x="230.85924" y="418.66617" xml:space="preserve"><tspan font-family="Anonymous Pro" font-size="20px" x="230.85924" y="418.66617">OR</tspan></text><text fill="#000000" font-family="Anonymous Pro" font-size="40px" line-height="125%" style="word-spacing:0px;letter-spacing:0px;text-anchor:middle;text-align:center" x="222.2872" y="665.97668" xml:space="preserve"><tspan font-size="20px" style="text-anchor:start;text-align:start" x="222.2872" y="665.97668">fluttershy</tspan></text></g><path d="m137.96 499.63 60.609-48.487" fill="none" marker-end="url(#a)" stroke="#000"></path><path d="m350.61 499.63-60.6-48.48" fill="none" marker-end="url(#a)" stroke="#000"></path><text fill="#000000" font-family="Anonymous Pro" font-size="40px" line-height="125%" style="word-spacing:0px;letter-spacing:0px;text-anchor:middle;text-align:center" x="32.654854" y="524.50507" xml:space="preserve"><tspan font-size="20px" style="text-anchor:start;text-align:start" x="32.654854" y="524.50507">twilight sparkle</tspan></text><path d="m206.18 793.09 67.68 34.951" fill="none" marker-end="url(#a)" stroke="#000"></path></g><text fill="#000000" font-size="20px" line-height="100%" style="word-spacing:0px;letter-spacing:0px" x="173.03325" y="633.04785" xml:space="preserve"><tspan font-family="Sans" line-height="100%" x="173.03325" y="633.04785">Tagged</tspan><tspan font-family="Anonymous Pro" x="173.03325" y="656.04584">twilight sparkle</tspan></text><g fill="none" stroke="#000" stroke-width="1px" transform="translate(.0000047143 -10)"><path d="m363.65 227.46a146.47 146.47 0 0 1 -146.47 146.47 146.47 146.47 0 0 1 -146.47 -146.47 146.47 146.47 0 0 1 146.47 -146.47 146.47 146.47 0 0 1 146.47 146.47z" style="color:#000000" transform="matrix(.54530 0 0 .54530 225.93 690.6)"></path><path d="m363.65 227.46a146.47 146.47 0 0 1 -146.47 146.47 146.47 146.47 0 0 1 -146.47 -146.47 146.47 146.47 0 0 1 146.47 -146.47 146.47 146.47 0 0 1 146.47 146.47z" style="color:#000000" transform="matrix(.54530 0 0 .54530 333.89 691.71)"></path></g></g></svg>
