<?xml version="1.0" encoding="UTF-8" standalone="no"?>
<svg xmlns="http://www.w3.org/2000/svg" version="1.1" viewBox="0 0 400 700"><defs><marker id="a" orient="auto" overflow="visible" refX="0" refY="0"><path d="m8.7186 4.0337-10.926-4.0177 10.926-4.0177c-1.7455 2.3721-1.7354 5.6175-6e-7 8.0354z" fill-rule="evenodd" stroke-linejoin="round" stroke-width=".625" transform="matrix(-1.1,0,0,-1.1,-1.1,0)"></path></marker></defs><g transform="translate(0 -352.36)"><rect fill="#fff" fill-rule="evenodd" height="764.91" style="color:#000000" width="468.71" x="-30.306" y="312.41"></rect><g transform="translate(6.0055 -34.286)"><path d="m191.33 534.56v9.0457c-2.1974 0.24544-4.3345 0.65791-6.4142 1.2335l-3.3716-8.3878-8.6345 3.4949 3.3716 8.3673c-2.1617 1.1712-4.1977 2.5269-6.1058 4.05l-6.3936-6.3937-6.5787 6.5787 6.3936 6.3936c-1.3568 1.7004-2.5802 3.5032-3.6594 5.4069l-8.3056-3.536-3.6388 8.5523 8.3056 3.536c-0.68947 2.3138-1.1832 4.7109-1.4596 7.1749h-9.0251v9.3129h9.0251c0.2455 2.196 0.65827 4.3358 1.2335 6.4142l-8.3673 3.3716 3.4744 8.6345 8.3673-3.3716c1.1673 2.1545 2.533 4.1826 4.05 6.0853l-6.3936 6.3936 6.5787 6.5787 6.3936-6.3936c1.6989 1.3564 3.505 2.5801 5.4069 3.6594l-3.536 8.3261 8.5523 3.6388 3.536-8.3056c2.3205 0.69142 4.7239 1.1837 7.1954 1.4596v9.0251h9.2924v-9.0251c2.1981-0.24541 4.3338-0.67829 6.4142-1.2541l3.3716 8.3878 8.6345-3.4744-3.3716-8.3673c2.163-1.1719 4.1967-2.5463 6.1058-4.0706l6.3936 6.3936 6.5787-6.5787-6.3936-6.3936c1.3506-1.694 2.5841-3.4908 3.6594-5.3863l8.3056 3.536 3.6388-8.5728-8.285-3.536c0.68791-2.3128 1.1638-4.7122 1.4391-7.1749h9.0457v-9.3129h-9.0457c-0.24526-2.186-0.66142-4.3241-1.2335-6.3937l8.3673-3.3716-3.4744-8.6345-8.3673 3.3716c-1.1699-2.1594-2.5289-4.1995-4.05-6.1058l6.3936-6.3936-6.5787-6.5787-6.3936 6.3937c-1.6996-1.3567-3.5042-2.58-5.4069-3.6594l3.536-8.3056-8.5523-3.6388-3.536 8.3056c-2.3215-0.69207-4.7228-1.1835-7.1954-1.4596v-9.0457h-9.2924z" fill="#fff" stroke="#000" stroke-width=".65787px" style="color:#000000"></path><g fill="#000000" font-family="Sans" font-size="40px"><text line-height="125%" style="word-spacing:0px;letter-spacing:0px" x="180.57304" y="591.10779" xml:space="preserve"><tspan font-family="Anonymous Pro" font-size="20px" x="180.57304" y="591.10779">AND</tspan></text><text line-height="125%" style="word-spacing:0px;letter-spacing:0px" x="253.54832" y="700.55261" xml:space="preserve"><tspan font-family="Anonymous Pro" font-size="20px" x="253.54832" y="700.55261">pinkie pie</tspan></text><text line-height="125%" style="word-spacing:0px;letter-spacing:0px" x="28.774897" y="700.55261" xml:space="preserve"><tspan font-family="Anonymous Pro" font-size="20px" x="28.774897" y="700.55261">fluttershy</tspan></text></g><path d="m88.893 673.13 60.607-48.49" fill="none" marker-end="url(#a)" stroke="#000"></path><path d="m301.55 673.13-60.61-48.49" fill="none" marker-end="url(#a)" stroke="#000"></path></g><text fill="#000000" font-family="Sans" font-size="40px" line-height="125%" style="word-spacing:0px;letter-spacing:0px" x="65.135857" y="399.32513" xml:space="preserve"><g font-family="Anonymous Pro" font-size="20px"><tspan x="65.135857" y="399.32513">fluttershy AND pinkie pie</tspan><tspan x="65.135857" y="424.32513">fluttershy &amp;&amp; pinkie pie</tspan><tspan x="65.135857" y="449.32513">fluttershy , pinkie pie</tspan></g></text><g transform="translate(10.289)"><g fill="#fff"><path d="m363.65 227.46a146.47 146.47 0 0 1 -146.47 146.47 146.47 146.47 0 0 1 -146.47 -146.47 146.47 146.47 0 0 1 146.47 -146.47 146.47 146.47 0 0 1 146.47 146.47z" style="color:#000000" transform="matrix(.54530 0 0 .54530 18.992 711.75)"></path><path d="m363.65 227.46a146.47 146.47 0 0 1 -146.47 146.47 146.47 146.47 0 0 1 -146.47 -146.47 146.47 146.47 0 0 1 146.47 -146.47 146.47 146.47 0 0 1 146.47 146.47z" style="color:#000000" transform="matrix(.54530 0 0 .54530 126.96 712.85)"></path><rect height="264.49" stroke="#000" stroke-width=".905" style="color:#000000" width="347.96" x="17.622" y="732.45"></rect></g><path d="m191.99 777.49c-16.255 14.621-26.469 35.822-26.469 59.406 0 22.998 9.7246 43.708 25.281 58.281 16.257-14.621 26.5-35.821 26.5-59.406 0-23.004-9.7496-43.707-25.312-58.281z" fill="#c8c3ff" style="color:#000000"></path><rect fill="#c8c3ff" height="21.213" style="color:#000000" width="21.213" x="258.96" y="1008.7"></rect><g fill="#000000" font-family="Sans"><text font-size="40px" line-height="125%" style="word-spacing:0px;letter-spacing:0px" x="293.23941" y="1025.5944" xml:space="preserve"><tspan font-size="18px" x="293.23941" y="1025.5944">Returned</tspan></text><text font-size="20px" line-height="100%" style="word-spacing:0px;letter-spacing:0px" x="39.145206" y="944.74396" xml:space="preserve"><tspan font-family="Sans" line-height="100%" x="39.145206" y="944.74396">Tagged</tspan><tspan font-family="Anonymous Pro" line-height="100%" x="39.145206" y="967.74194">fluttershy</tspan></text><text font-size="20px" line-height="100%" style="word-spacing:0px;letter-spacing:0px;text-anchor:end;text-align:end" x="349.55362" y="944.85138" xml:space="preserve"><tspan font-family="Sans" line-height="100%" style="text-anchor:end;text-align:end" x="349.55362" y="944.85138">Tagged</tspan><tspan font-family="Anonymous Pro" style="text-anchor:end;text-align:end" x="349.55362" y="967.84937">pinkie pie</tspan></text><text font-size="26.611px" line-height="125%" style="word-spacing:0px;letter-spacing:0px" x="330.15677" y="760.99768" xml:space="preserve"><tspan font-family="Adobe Garamond Pro" font-style="italic" x="330.15677" y="760.99768">U</tspan></text></g><g fill="none" stroke="#000"><path d="m363.65 227.46a146.47 146.47 0 0 1 -146.47 146.47 146.47 146.47 0 0 1 -146.47 -146.47 146.47 146.47 0 0 1 146.47 -146.47 146.47 146.47 0 0 1 146.47 146.47z" stroke-width="1px" style="color:#000000" transform="matrix(.54530 0 0 .54530 18.992 711.75)"></path><path d="m363.65 227.46a146.47 146.47 0 0 1 -146.47 146.47 146.47 146.47 0 0 1 -146.47 -146.47 146.47 146.47 0 0 1 146.47 -146.47 146.47 146.47 0 0 1 146.47 146.47z" stroke-width="1px" style="color:#000000" transform="matrix(.54530 0 0 .54530 126.96 712.85)"></path><g stroke-width="0.905" transform="translate(2.3067)"><path d="m87.634 920.49 1.011-44.44" marker-end="url(#a)"></path><path d="m289.41 920.49 1.0101-44.447" marker-end="url(#a)"></path></g></g></g></g></svg>
